<?xml version="1.0" encoding="UTF-8" standalone="no"?>
<!-- Generator: Adobe Illustrator 18.0.0, SVG Export Plug-In . SVG Version: 6.00 Build 0)  -->

<svg
   xmlns:dc="http://purl.org/dc/elements/1.1/"
   xmlns:cc="http://creativecommons.org/ns#"
   xmlns:rdf="http://www.w3.org/1999/02/22-rdf-syntax-ns#"
   xmlns:svg="http://www.w3.org/2000/svg"
   xmlns="http://www.w3.org/2000/svg"
   xmlns:sodipodi="http://sodipodi.sourceforge.net/DTD/sodipodi-0.dtd"
   xmlns:inkscape="http://www.inkscape.org/namespaces/inkscape"
   version="1.1"
   id="Capa_1"
   x="0px"
   y="0px"
   viewBox="0 0 56.673 56.673"
   style="enable-background:new 0 0 56.673 56.673;"
   xml:space="preserve"
   inkscape:version="0.91 r13725"
   sodipodi:docname="placeholder.svg"><metadata
     id="metadata49"><rdf:RDF><cc:Work
         rdf:about=""><dc:format>image/svg+xml</dc:format><dc:type
           rdf:resource="http://purl.org/dc/dcmitype/StillImage" /><dc:title></dc:title></cc:Work></rdf:RDF></metadata><defs
     id="defs47" /><sodipodi:namedview
     pagecolor="#ffffff"
     bordercolor="#666666"
     borderopacity="1"
     objecttolerance="10"
     gridtolerance="10"
     guidetolerance="10"
     inkscape:pageopacity="0"
     inkscape:pageshadow="2"
     inkscape:window-width="1855"
     inkscape:window-height="1056"
     id="namedview45"
     showgrid="false"
     inkscape:zoom="5.8891253"
     inkscape:cx="35.053468"
     inkscape:cy="14.540736"
     inkscape:window-x="65"
     inkscape:window-y="24"
     inkscape:window-maximized="1"
     inkscape:current-layer="Capa_1" /><g
     id="g3"><path
       style="fill:#ac5b59;fill-opacity:1"
       d="M31.483,16.213c-2.065,0.511-4.227,0.511-6.292,0c-10.756-2.66-19.762-1.64-19.658,18.643   c0.053,10.39,9.783,23.862,20.009,21.557c1.834-0.413,3.755-0.413,5.589,0c10.226,2.305,19.956-11.167,20.009-21.557   C51.244,14.574,42.239,13.553,31.483,16.213z"
       id="path5" /><path
       style="fill:#d57b79;fill-opacity:1"
       d="M10.533,29.674c-0.553,0-1-0.448-1-1c0-5.514,4.037-10,9-10c0.553,0,1,0.448,1,1s-0.447,1-1,1   c-3.859,0-7,3.589-7,8C11.533,29.226,11.085,29.674,10.533,29.674z"
       id="path7" /><path
       style="fill:#473531;fill-opacity:1"
       d="M28.265,19.999c-0.537,0-0.981-0.427-0.998-0.968c-0.135-4.232-1.761-9.545-5.922-11.764   c-0.487-0.26-0.672-0.865-0.412-1.353c0.261-0.487,0.864-0.672,1.354-0.412c4.914,2.62,6.827,8.673,6.979,13.465   c0.018,0.552-0.415,1.014-0.968,1.031C28.286,19.999,28.276,19.999,28.265,19.999z"
       id="path9" /><path
       style="fill:#805449;fill-opacity:1"
       d="M28.176,23.592c-1.68,0-3.261-0.655-4.45-1.845c-0.391-0.39-0.391-1.023,0-1.414   s1.023-0.391,1.414,0c0.812,0.812,1.891,1.259,3.036,1.259s2.224-0.447,3.035-1.259c0.391-0.391,1.023-0.391,1.414,0   c0.391,0.39,0.391,1.023,0,1.414C31.436,22.937,29.856,23.592,28.176,23.592z"
       id="path11" /><path
       style="fill:#667e53;fill-opacity:1"
       d="M27.305,13.04l0.609-4.086c0.643-4.315,4.031-7.703,8.346-8.346L40.345,0l-0.609,4.086   c-0.643,4.315-4.031,7.703-8.346,8.346L27.305,13.04z"
       id="path13" /></g><g
     id="g15" /><g
     id="g17" /><g
     id="g19" /><g
     id="g21" /><g
     id="g23" /><g
     id="g25" /><g
     id="g27" /><g
     id="g29" /><g
     id="g31" /><g
     id="g33" /><g
     id="g35" /><g
     id="g37" /><g
     id="g39" /><g
     id="g41" /><g
     id="g43" /><text
     xml:space="preserve"
     style="font-style:normal;font-weight:normal;font-size:40px;line-height:125%;font-family:sans-serif;letter-spacing:0px;word-spacing:0px;fill:#000000;fill-opacity:1;stroke:none;stroke-width:1px;stroke-linecap:butt;stroke-linejoin:miter;stroke-opacity:1"
     x="19.211187"
     y="34.339996"
     id="text4177"
     sodipodi:linespacing="125%"><tspan
       sodipodi:role="line"
       id="tspan4179"
       x="19.211187"
       y="34.339996"></tspan></text>
<g
     transform="matrix(0.07971321,0,0,0.07971321,16.422626,19.501231)"
     id="icomoon-ignore" /><path
     inkscape:connector-curvature="0"
     style="fill:#ffffff;fill-opacity:1"
     d="m 30.18375,45.869714 0,4.341815 c 0,0.398 -0.325636,0.723635 -0.723636,0.723635 l -4.341814,0 c -0.398,0 -0.723636,-0.325635 -0.723636,-0.723635 l 0,-4.341815 c 0,-0.398 0.325636,-0.723637 0.723636,-0.723637 l 4.341814,0 c 0.398,0 0.723636,0.325637 0.723636,0.723637 z m 5.716723,-10.854538 c 0,3.43727 -2.333725,4.757907 -4.05236,5.716723 -1.067363,0.615091 -1.736726,1.863363 -1.736726,2.387999 l 0,0 c 0,0.398 -0.307545,0.868363 -0.723637,0.868363 l -4.341815,0 c -0.398,0 -0.651271,-0.615091 -0.651271,-1.013091 l 0,-0.814089 c 0,-2.188999 2.170907,-4.070452 3.762906,-4.794089 1.393,-0.633181 1.971909,-1.23018 1.971909,-2.387997 0,-1.013091 -1.320637,-1.917636 -2.785999,-1.917636 -0.814091,0 -1.555817,0.253272 -1.953817,0.524636 -0.434182,0.307546 -0.868363,0.741726 -1.935726,2.080454 -0.144727,0.180908 -0.361819,0.289454 -0.560818,0.289454 -0.162817,0 -0.307545,-0.05428 -0.452272,-0.144728 L 19.47394,33.549813 c -0.307546,-0.235182 -0.379908,-0.633182 -0.180909,-0.958817 1.953817,-3.23827 4.703633,-4.812178 8.394175,-4.812178 3.871452,0 8.213267,3.093542 8.213267,7.236358 z"
     id="path7-3" /></svg>