<svg xmlns="http://www.w3.org/2000/svg" viewBox="0 0 1000 1000" enable-background="new 0 0 1000 1000"><style type="text/css">.st0{fill:#B27129;} .st1{fill:#FAA220;} .st2{fill:#9D6834;}</style><path d="M356.8 948.8c-52.9 19.4-111.4 19.7-163.5-1.7C112.9 914 80.6 846.8 80.6 846.8S-91.1 568.3 66.7 299 500 36 500 36s275.4-6.2 433.3 263-13.9 547.8-13.9 547.8-43 89.6-153.4 112.8c-41.2 8.7-84.1 4.4-123.7-10.2-42.9-15.7-112.6-39.4-143.9-39.4-30.8 0-98.6 23-141.6 38.8z" class="st0"/><path d="M377.3 915.3c-88.7 41.1-195 17-255.2-60.1-12.2-15.6-17.7-27-17.7-27s-162-262.7-13.1-516.6S500 63.4 500 63.4s259.8-5.8 408.6 248.1-13.1 516.6-13.1 516.6-38.4 80-136.5 104.5c-43.3 10.8-89 5.1-129.5-13.7-40.6-18.9-102-45-131.1-44.9-26.8.1-81.5 22.9-121.1 41.3z" class="st1"/><ellipse cx="500" cy="556.9" class="st2" rx="178.1" ry="218.9"/></svg>