<svg xmlns="http://www.w3.org/2000/svg" viewBox="0 0 1000 1000" enable-background="new 0 0 1000 1000"><style type="text/css">.st0{fill:#50672E;} .st1{fill:#6B8F3C;} .st2{fill:#A71F23;}</style><path d="M535.2 436.3C806.4 240.4 602.3 20 602.3 20s-263 145.2-67.1 416.3z" class="st0"/><path d="M469.6 428.8c501.2 93.9 530.4-363 530.4-363s-436.5-138.2-530.4 363z" class="st1"/><path d="M414.7 435.4c-12.2-5.3-25.2-8.3-37.4-13.6-40.8-17.6-143.5-49-221.5 37.7-24.9 27.7-41.5 56.4-52.5 83.9-24.8 62.3-22.9 132 3.1 193.8 21.3 50.5 51.8 134.3 30.3 157.2 0 0-51.4 89.6-129.8 56 0 0-12.4-5.4-4.3 7.5 8.1 12.9 41.9 35.4 132.4 11.3 0 0 44.7-8.1 88.3-33s143.1 1.1 143.1 1.1 214.1 46.4 291.2-172.7c0 0 23.2-59-14.3-136.8-14.9-30.9-36.7-57.9-63-79.9-36.4-30.5-109.2-88-165.6-112.5z" class="st2"/></svg>