<svg xmlns="http://www.w3.org/2000/svg" viewBox="0 0 1000 1000" enable-background="new 0 0 1000 1000"><style type="text/css">.st0{fill:#649C42;} .st1{fill:#1E0F10;} .st2{fill:#512D33;}</style><path d="M769.6 287.1c43.2-32 75.2-72.5 91-120.7C676.3 103.7 618.9 185 618.9 185 607.7 47.6 514.1 5.6 500 0c-14.2 5.6-107.7 47.6-118.9 184.9 0 0-57.4-81.2-241.7-18.6 18.1 55.1 57.3 100.3 110.3 134.1 0 .1 290.1 216.4 519.9-13.3z" class="st0"/><path d="M473.1 988c-21.2 10-44.9 13.8-68.2 11.1-97.1-11.1-125.7-69-125.7-69s-42.3 3.4-77.6-54.4 14-121 14-121-39.9-22.3-49.1-55.4c-9.2-33 9.7-75.7 9.7-75.7s-32.4-22.9-36.7-81.4c-4.3-58.5 37.6-82.9 37.6-82.9-49.1-29.4-28.4-78.1-28.4-78.1 28.8-81.3 120.5-71.3 120.5-71.3s16-38 58.1-64.9 92.2 5.1 92.2 5.1c5.8-61.1 63-64.3 77.2-64.1 2.1 0 4.2 0 6.4 0 14.2-.2 71.3 3 77.2 64.1 0 0 50.1-32 92.2-5.1s58.1 64.9 58.1 64.9 91.7-10 120.5 71.3c0 0 20.7 48.7-28.4 78.1 0 0 41.9 24.4 37.6 82.9-4.3 58.5-36.7 81.4-36.7 81.4s18.9 42.7 9.7 75.7-49.1 55.4-49.1 55.4 49.3 63.2 14 121-77.6 54.4-77.6 54.4-28.5 57.7-125.1 68.9c-23.7 2.8-47.7-1-69.2-11.3-12.4-5.9-23.7-13.4-26-21.5-.1-.3-.6-.3-.7 0-1.8 6.3-9 12.3-18 17.3" class="st1"/><path d="M442 572.6c-7.5-1.3-14.7 2.8-17.8 9.7-9.2 20.5-31.4 33-54.6 29-23.2-4-39.9-23.2-41.8-45.6-.6-7.6-6-13.8-13.5-15.1-10.3-1.8-19.7 6.5-19 16.9 2.6 37.2 30.3 69.3 68.7 75.9 38.4 6.6 75.2-14.3 90.2-48.6 4.2-9.5-1.9-20.5-12.2-22.2zM747.8 460.2c-5.4-5.4-13.6-6.1-20.1-2.3-19.4 11.4-44.7 8.8-61.3-7.8-16.6-16.6-19.2-42-7.8-61.3 3.9-6.5 3.1-14.8-2.3-20.1-7.4-7.4-19.9-6.1-25.3 2.8-19.3 31.9-15.2 74.1 12.4 101.7s69.7 31.7 101.7 12.4c8.8-5.5 10.1-18 2.7-25.4zM392 379.6c-7.2 2.3-11.7 9.3-11.2 16.9 1.3 22.4-12.6 43.8-35 51-22.4 7.2-46.1-2.1-58.1-21.1-4-6.4-11.7-9.5-19-7.2-9.9 3.2-14.5 14.9-9 23.8 19.6 31.8 58.9 47.4 96.1 35.5s60.1-47.5 57.4-84.8c-.7-10.4-11.2-17.3-21.2-14.1zM408 846.7c-6.3-4.2-14.5-3.4-20.2 1.6-16.8 15-42.2 17.3-61.7 4.2s-27-37.5-19.5-58.7c2.5-7.1.1-15.1-6.1-19.3-8.7-5.8-20.7-2.2-24.2 7.6-12.8 35.1-.6 75.6 31.8 97.4 32.4 21.7 74.5 17.6 102.1-7.6 7.6-6.9 6.4-19.4-2.2-25.2zM668.2 756.9c-4.2 6.3-3.4 14.5 1.6 20.2 15 16.8 17.3 42.2 4.2 61.7-13.1 19.5-37.5 27-58.7 19.5-7.1-2.5-15.1-.1-19.3 6.1-5.8 8.7-2.2 20.7 7.6 24.2 35.1 12.8 75.6.6 97.4-31.8 21.7-32.4 17.6-74.5-7.6-102.1-6.9-7.7-19.4-6.5-25.2 2.2zM543.5 629.2c7.5-1.3 14.7 2.8 17.8 9.7 9.2 20.5 31.4 33 54.6 29 23.2-4 39.9-23.2 41.8-45.6.6-7.6 6-13.8 13.5-15.1 10.3-1.8 19.7 6.5 19 16.9-2.6 37.2-30.3 69.3-68.7 75.9-38.4 6.6-75.2-14.3-90.2-48.6-4.3-9.5 1.9-20.4 12.2-22.2z" class="st2"/></svg>