<svg xmlns="http://www.w3.org/2000/svg" viewBox="0 0 1000 1000" enable-background="new 0 0 1000 1000"><style type="text/css">.st0{fill:#6B7733;} .st1{fill:#A9BC6D;} .st2{fill:#7C8736;} .st3{fill:#8AA33C;}</style><circle cx="498.6" cy="332.4" r="258.4" class="st0"/><path d="M317.4 148.3S464.2 202.7 478.7 341c0 0 14 108-20.9 173.6l-36.3-35.4s35.8-104.3-3.7-187.2-132.4-105.6-132.4-105.6 14.9-21.9 32-38.1zM664.6 134.4s-14.1 19.7 1.8 52.2c15.9 32.6 57.7 145.8 24.9 199 0 0-30 35.8-45 47.4L603 450.6s52.8-48.3 68.8-83.7c2.4-5.3 4.3-10.6 5.8-15.8 6.6-22.8 5.9-47.1-.6-70-3.8-13.4-9.5-32.5-14.8-46.5-9-23.9-40.3-87.5-16.5-114.6l18.9 14.4z" class="st1"/><circle cx="741.6" cy="667.6" r="258.4" class="st2"/><path d="M926 486.4s-1.3 3.6-4.1 9.7C874.6 600.5 759.1 656 647.8 628.6c-52-12.8-114.8-30.6-149.2-48.9l18.2-39.4s171.5 80.5 254.3 40.9 116.8-126.7 116.8-126.7 21.9 14.9 38.1 31.9zM739.3 617.1c15.9 32.6 49.6 134.3 24.9 199 0 0-51.4 94.5-66.3 106.2l-33.2-8s77.6-78.9 85.6-117c.1-.4.2-.8.2-1.2 6.7-32.9 4.8-67-4.9-99.2-3.2-10.8-7-22.5-10.5-31.9-9-23.9-13-40.4-8.2-42.2" class="st1"/><circle cx="258.4" cy="667.6" r="258.4" class="st3"/><path d="M427.4 558.5s-1.3 3.6-4.1 9.7C376 672.6 260.5 728.1 149.2 700.7 97.2 687.9 34.4 670 0 651.7l7.3-45.5s187.8 75.4 270.7 35.9c82.9-39.6 111.2-115.5 111.2-115.5s22 14.8 38.2 31.9zM236 410.2s3.7 24.7 37.9 36.6c28.2 9.7 88.1 13.8 132.6 75.5 15.5 21.5 25.6 46.4 30.7 72.3 11.6 58.1 39.3 199.4 37.4 214.4l-29.8 37.5s-21.9-243.6-35.7-279.9-46.4-52.1-46.4-52.1-34.6-20.2-57.9-30.7c-23.2-10.5-90.4-34.2-92.7-70.3l23.9-3.3z" class="st1"/></svg>