<svg xmlns="http://www.w3.org/2000/svg" viewBox="0 0 1000 1000" enable-background="new 0 0 1000 1000"><style type="text/css">.st0{fill:#50672E;} .st1{fill:#B9BD54;} .st2{fill:#FCBB73;}</style><path d="M591.7 230.3c54.8 54.8 54.8 307.2 0 362-54.8 54.8-307.2 54.8-362 0L4.8 817.3c224.2 224.2 587.7 224.2 811.9 0s224.2-587.7 0-811.9l-225 224.9z" class="st0"/><path d="M601.1 221c60 60 60 320.8 0 380.7-60 60-320.8 60-380.7 0L24.5 797.6c213.3 213.3 559.2 213.3 772.5 0s213.3-559.2 0-772.5L601.1 221z" class="st1"/><path d="M544.6 277.5c73.9 73.9 73.9 193.8 0 267.7s-193.8 73.9-267.7 0l-189 189c178.3 178.3 467.4 178.3 645.7 0s178.3-467.4 0-645.7l-189 189z" class="st2"/></svg>