<svg xmlns="http://www.w3.org/2000/svg" viewBox="0 0 1000 1000" enable-background="new 0 0 1000 1000"><style type="text/css">.st0{fill:#679F42;} .st1{fill:#8BC349;} .st2{fill:#DCECC8;} .st3{fill:#50672E;} .st4{fill:#6B8F3C;}</style><ellipse cx="569.2" cy="430.8" transform="matrix(.707 -.707 .707 .707 -137.893 528.669)" class="st0" rx="44.5" ry="44.5"/><path d="M661 546L330.2 921.1c-16.1 18.3-35.5 33.5-57.5 43.9-44.2 20.7-114.8 31.1-191.8-45.8S14.3 771.5 35 727.3c10.3-22.1 25.6-41.4 43.9-57.5L454 339" class="st1"/><path d="M272.7 965c-44.2 20.7-114.8 31.1-191.8-45.8S14.3 771.5 35 727.3C79.8 834.8 165.2 920.2 272.7 965z" class="st2"/><path d="M489.2 375.3L58.8 793.4s-33.5 32.1-10.4 82.9c5.5 12.1 13.7 22.9 23.1 32.3l19.8 19.8c9.4 9.4 20.2 17.6 32.3 23.1 50.8 23.1 82.9-10.4 82.9-10.4l418.1-430.4" class="st0"/><path d="M586.5 473.1l-213 213s-84.9 80.8-134.3 161.2-73.9 82.8-73.9 82.8-49.8 22-83.7-11.8-11.8-83.7-11.8-83.7 2.4-24.5 82.8-73.9c80.4-49.4 161.2-134.3 161.2-134.3l213-213" class="st1"/><path d="M586.2 458.1c211.2 17.6 203.9-172.5 203.9-172.5s-186.3-38.7-203.9 172.5z" class="st3"/><path d="M581.8 465.6C853 641.1 980 380.3 980 380.3s-222.7-185.9-398.2 85.3z" class="st4"/><path d="M537.6 410.1C529 198.3 718.7 213.7 718.7 213.7s30.7 187.8-181.1 196.4z" class="st3"/><path d="M534.4 418.2C358.9 147 619.7 20 619.7 20s185.9 222.7-85.3 398.2z" class="st4"/><path d="M571.4 456.2c53.2 205.2 230.2 135.5 230.2 135.5s-25-188.6-230.2-135.5zM543.8 428.6c-205.2-53.2-135.5-230.2-135.5-230.2s188.6 25 135.5 230.2z" class="st3"/></svg>