<svg xmlns="http://www.w3.org/2000/svg" viewBox="0 0 1000 1000" enable-background="new 0 0 1000 1000"><style type="text/css">.st0{fill:#D02027;} .st1{fill:#80A24D;}</style><path d="M784.8 259.3s-86.2 5.2-68.9 132.3-32.8 216.6-32.8 216.6-86.3 151.8-266.5 191c0 0-86.8 24-155.2 24.6-36.1.3-72.2 3.4-107.3 11.4-34 7.8-71.8 20.3-99.9 40.4 0 0-33.6 25.5-15.8 43.7 0 0 7.2 5.9 12.1 2.9 5.5-3.5 11-6.7 17.4-7.8 26.6-4.4 84.5-11.4 114.4 4.2 0 0 102.6 43.7 212.2 45s243-59 243-59S798 854.5 901.2 650.1c0 0 53.7-85.3 58.4-197.9.8-20 2.6-40 5-59.9 5.4-44 5.7-123.8-61-135.2 0 0-60.8-4.4-118.8 2.2z" class="st0"/><path d="M736.6 87.6c-8.5-9-19-15.9-30-21.5-8.9-4.5-19.5-12.2-7.3-18.9 18.8-10.4 39.3-10.9 39.3-10.9s28.9 3.7 73 79.3c0 0 25.8 51.1 38.7 88.4 0 0 23.9 19.4 38.1 47.8 0 0 5.7.9 23.3 2 0 0 8.1.3 7.4 3.6-2.3 9.8-10.1 7.3-10.1 7.3l-154.6 10.1s-9.8-4.7-1.2-7.2c26.8-7.8 31.9-11.6 31.9-11.6s4.1-24.6-3.2-69.4c-.1-.2-8.1-59.5-45.3-99z" class="st1"/></svg>