<svg xmlns="http://www.w3.org/2000/svg" viewBox="0 0 634.4 1000" enable-background="new 0 0 634.4 1000"><style type="text/css">.st0{fill:#244020;} .st1{fill:#FCF8CD;}</style><path d="M318.8 756.6c26-.2 51.9-5 76.3-14.2 117.3-44.4 171-104.6 171-104.6s118.1-128.7 43.7-372.9S315.5 0 315.5 0 97.2 22.2 23.9 266.7s45.5 372.7 45.5 372.7 53.7 59.5 170.4 103.4c25.2 9.5 52 14.1 79 13.8z" class="st0"/><path d="M346.5 966.9c-10.4-73.7-18.9-372.4 122.1-436.8 0 0 27.1-15 14.4-25-.8-.6-1.6-1.2-2.4-1.7-9.3-5.9-21.4-4.5-30 2.2-18.4 14.3-86.2 57.6-98.3 67.7-14.5 12.1-3.5-154.2-3.5-154.2s4.8-36.3 94.4-59.9 33.9-34.5 33.9-34.5-36.3-3.6-125.9 34.5c0 0-16.3 22.4-17.5-107.1v-88c0-8.9-7.2-16.1-16.1-16.1-8.9 0-16.1 7.2-16.1 16.1v88C300.3 381.7 284 359.3 284 359.3c-89.6-38.1-125.9-34.5-125.9-34.5s-55.7 10.9 33.9 34.5 94.4 59.9 94.4 59.9 11 166.3-3.5 154.2c-12.1-10.1-79.9-53.4-98.3-67.7-8.6-6.7-20.8-8.1-30-2.2-.8.5-1.6 1.1-2.4 1.7-12.7 10 14.4 25 14.4 25 141 64.4 132.5 363 122.1 436.8-2.5 17.5 11.2 33.1 28.9 33.1 17.7-.1 31.4-15.7 28.9-33.2z" class="st1"/></svg>