<svg xmlns="http://www.w3.org/2000/svg" viewBox="0 0 1000 690.1" enable-background="new 0 0 1000 690.1"><style type="text/css">.st0{fill:#436730;} .st1{fill:#618C3D;} .st2{fill:#9B1F2F;} .st3{fill:#B22536;} .st4{fill:#CB2027;} .st5{fill:#C24459;} .st6{fill:#EE7581;} .st7{fill:#D35168;}</style><path d="M981.8 111.5c0 350.1-312.2 312.2-312.2 312.2s-37.9-312.2 312.2-312.2z" class="st0"/><path d="M1000 325c-129.6 240.6-330.2 99-330.2 99s89.6-228.7 330.2-99z" class="st1"/><path d="M18.2 111.5c0 350.1 312.2 312.2 312.2 312.2s37.9-312.2-312.2-312.2z" class="st0"/><path d="M0 325c129.6 240.6 330.2 99 330.2 99S240.6 195.3 0 325z" class="st1"/><circle cx="500" cy="214.6" r="207.7" class="st2"/><circle cx="339.7" cy="475.5" r="207.7" class="st3"/><circle cx="660.3" cy="475.5" r="207.7" class="st4"/><path d="M601.5 135.6c-23-29.3-56.5-50-94.8-56.4-11.1-1.9-16.4-14.8-9.8-24 3.1-4.3 8.1-6.7 13.4-6.4 49 2.7 91.8 28.5 117.8 66.8 3.6 5.2 3.4 12.2-.3 17.4l-1.6 2.3c-6 8.2-18.3 8.4-24.7.3z" class="st5"/><path d="M738 573c29.3-23 50-56.5 56.4-94.8 1.9-11.1 14.8-16.4 24-9.8 4.3 3.1 6.7 8.1 6.4 13.4-2.7 49-28.5 91.8-66.8 117.8-5.2 3.6-12.2 3.4-17.4-.3l-2.3-1.6c-8.2-6.1-8.4-18.4-.3-24.7z" class="st6"/><path d="M242.3 551.2c23 29.3 56.5 50 94.8 56.4 11.1 1.9 16.4 14.8 9.8 24-3.1 4.3-8.1 6.7-13.4 6.4-49-2.7-91.8-28.5-117.8-66.8-3.6-5.2-3.4-12.2.3-17.4l1.6-2.3c6-8.2 18.3-8.4 24.7-.3z" class="st7"/></svg>