<svg xmlns="http://www.w3.org/2000/svg" viewBox="0 0 1000 1000" enable-background="new 0 0 1000 1000"><style type="text/css">.st0{fill:#511812;} .st1{fill:#945754;}</style><ellipse cx="499.8" cy="500.4" transform="matrix(.707 -.707 .707 .707 -207.429 499.99)" class="st0" rx="300.7" ry="623.8"/><path d="M193.1 10.9S394.1 248 668.3 248l35.8 34.1S338.7 252.1 145.4 18l47.7-7.1zM341.1 172.9S469.5 491.5 406 818l25.3 19.1s42.6-237.5-45.1-641.9l-45.1-22.3zM436.9 542.3S782.6 590.8 982 867.6l-8.8 25.7S751.4 619.2 438.5 566.7l-1.6-24.4zM776 356.2s-39.9 183 23.6 334.6l30.9 22.4s-65.8-175.5-24.4-320.9L776 356.2zM395.9 365.8s-195.3 5.9-383.8-135.1l8.9 51.4s164.8 94.4 380.3 111.3l-5.4-27.6zM574.3 604.3s-32.7 161.3 47.1 342.9l26.6 10.6s-69.9-140.4-57.2-347l-16.5-6.5z" class="st1"/></svg>