<svg xmlns="http://www.w3.org/2000/svg" viewBox="0 0 1000 1000" enable-background="new 0 0 1000 1000"><style type="text/css">.st0{fill:#8BC349;} .st1{fill:#ED1459;} .st2{fill:#EEEDEE;} .st3{fill:#465B65;}</style><path d="M859.4 551.3s103-84.8 0-255c0 0 18.8 120.6-41.9 84.7l41.9 170.3zM135.1 551.3s-103-84.8 0-255c0 0-18.8 120.6 41.9 84.7l-41.9 170.3zM771.7 827.3S904.5 840.2 952 647c0 0-72 98.5-89.5 30.2l-90.8 150.1zM230.3 827.3S97.5 840.2 50 647c0 0 72 98.5 89.5 30.2l90.8 150.1zM331.7 195.1s71.2-72.2 74-184.3c0 0 54.1 57 93.3 139.6l-167.3 44.7zM665.6 195.1s-71.2-72.2-74-184.3c0 0-54.1 57-93.3 139.6l167.3 44.7z" class="st0"/><ellipse cx="498.3" cy="570.6" class="st1" rx="372.5" ry="420.2"/><ellipse cx="499" cy="570.6" class="st2" rx="310.6" ry="350.4"/><circle cx="479.8" cy="292.1" r="23.5" class="st3"/><circle cx="571.7" cy="383.9" r="23.5" class="st3"/><circle cx="314.7" cy="500.1" r="23.5" class="st3"/><circle cx="475.7" cy="639.8" r="23.5" class="st3"/><circle cx="720.9" cy="570.6" r="23.5" class="st3"/><circle cx="381.7" cy="781.1" r="23.5" class="st3"/><circle cx="640.4" cy="757.6" r="23.5" class="st3"/></svg>