<svg xmlns="http://www.w3.org/2000/svg" viewBox="0 0 824.6 1010.1" enable-background="new 0 0 824.6 1010.1"><style type="text/css">.st0{fill:#6E5767;} .st1{fill:#C1C230;} .st2{fill:#FFFFFF;}</style><path d="M413.8 5.3s-37.5-11.4-55.4 140c0 0-19.5 97.7-71.6 126.2 0 0-351.7 129.5-267 464.9 0 0 71.6 267 394.1 268.7h-3C733.3 1003.5 805 736.4 805 736.4 889.7 401 538 271.5 538 271.5c-52.1-28.5-71.6-126.2-71.6-126.2C448.5-6.1 411 5.3 411 5.3" class="st0"/><path d="M413.8 5.3s-37.5-11.4-55.4 140l29.3-18.4c26.7-16.8 62-8.5 78.4 18.4-17.9-151.4-55.4-140-55.4-140" class="st1"/><path d="M656.1 467.2c-18.1 8.5-35-.7-44.8-16.2 5 8-1-.9-2.2-2.4-1.6-1.9-3.1-3.7-4.8-5.5-.6-.6-1.1-1.1-1.7-1.7-.3-.3-.6-.5-1.1-1-2-1.6-4.1-3.3-6.2-4.8-14.8-10.9-18.8-31.7-8-46.9 10.4-14.7 32.2-18.9 46.9-8 15.8 11.7 27.7 25.2 38.1 41.7 9.7 15.6-1.2 37.8-16.2 44.8z" class="st2"/></svg>