<svg xmlns="http://www.w3.org/2000/svg" viewBox="0 0 1000 803.7" enable-background="new 0 0 1000 803.7"><style type="text/css">.st0{fill:#EEC78E;} .st1{fill:#D39658;}</style><path d="M360.8 492s62.7 241.1-132.9 216.5S.3 419.4.3 419.4s-5.7-42.4 35-47.2c21.8-2.6 41.4-14.7 51.9-34 1.7-3 3.2-6.2 4.6-9.7C103.6 299 183.6 87.2 232 72.4c11.1-3.4 19.7-2.8 26.3 0 44.5 19 94.3 22.1 139.2 4 29.9-12.1 57.6-25 71.5-36 0 0 78.7-79.6 133.7 4.1 0 0 20.5 60.7-15.6 81.2 0 0 120.6-5.7 133.7 62.3 0 0 19.7 46.8 91.9 80.4s-36.9 146-36.9 146-33.6 39.4-133.9-20.9l-60.3-35.3s-82.9-32.3-53.8 25.5c9.1 18 23.1 33.1 39.9 44.1 50.4 33 186.5 117 295.6 136.7 0 0 123-28.3 134.7 30.8s-33.8 92.9-33.8 92.9S816 818 709.6 794.6c0 0-131.4-31.6-334-302.7-.1.1-16.7-18-14.8.1z" class="st0"/><path d="M562.1 303.5c-2.6-23.8-1.1-75.9 47.2-129.5 4.8-5.3 2.2-13.9-4.8-15.6-3.2-.8-6.6.2-9 2.6-62.1 62.9-57.1 125.4-53.6 144.8.7 3.7 3.5 6.6 7.1 7.5l1.5.4c6.3 1.5 12.3-3.7 11.6-10.2zM674.3 376.9c-.3-24 6.2-75.7 59.5-124.4 5.3-4.9 3.5-13.6-3.3-16-3.1-1.1-6.6-.4-9.2 1.7-67.9 56.6-68.9 119.3-67.3 139 .3 3.7 2.8 6.9 6.4 8.2l1.4.5c6.2 2.1 12.6-2.5 12.5-9zM425.3 272.5c-9.1-22.2-21.9-72.7 9.8-137.5 3.2-6.5-1.7-14-8.9-13.6-3.3.1-6.3 2-7.9 5-42.5 77.5-20.5 136.3-11.8 154 1.7 3.4 5.2 5.4 8.9 5.3l1.5-.1c6.5-.5 10.9-7.1 8.4-13.1zM310.6 297c-13.4-19.9-36.2-66.7-18.3-136.7 1.8-7-4.5-13.3-11.5-11.6-3.2.8-5.8 3.3-6.7 6.5-25.9 84.5 7.6 137.6 19.7 153.2 2.3 3 6.1 4.3 9.8 3.3l1.5-.4c6.2-1.5 9.1-8.9 5.5-14.3zM777.9 752.2c1-24 10.2-75.2 66-121 5.6-4.6 4.2-13.4-2.4-16.1-3.1-1.2-6.6-.8-9.3 1.2-70.8 52.9-75.2 115.5-74.7 135.2.1 3.8 2.4 7.1 5.9 8.5l1.4.6c6.1 2.3 12.8-1.9 13.1-8.4zM647.4 672.4c5.9-23.2 25.4-71.6 89.4-105 6.4-3.3 6.9-12.3.9-16.3-2.8-1.8-6.3-2.1-9.3-.7-80.1 37.3-97.2 97.7-100.7 117.1-.7 3.7.9 7.4 4.1 9.5l1.3.8c5.3 3.7 12.7.9 14.3-5.4zM528 618.2c5.9-23.2 25.4-71.6 89.4-105 6.4-3.3 6.9-12.3.9-16.3-2.8-1.8-6.3-2.1-9.3-.7-80.1 37.3-97.2 97.7-100.7 117.1-.7 3.7.9 7.4 4.1 9.5l1.3.8c5.3 3.8 12.7 1 14.3-5.4zM247.7 648.3c1.2-23.9 11.1-75.1 67.4-120.3 5.6-4.5 4.4-13.4-2.2-16.1-3.1-1.3-6.6-.8-9.3 1.1-71.4 52.1-76.5 114.6-76.2 134.3.1 3.8 2.4 7.1 5.8 8.6l1.4.6c6.1 2.5 12.8-1.7 13.1-8.2zM118.4 573.4c5.7-23.3 24.9-71.7 88.6-105.6 6.4-3.4 6.8-12.3.8-16.3-2.8-1.8-6.3-2.1-9.3-.6-79.8 37.9-96.5 98.4-99.9 117.8-.6 3.7 1 7.4 4.1 9.5l1.3.8c5.4 3.5 12.8.7 14.4-5.6z" class="st1"/></svg>