<svg xmlns="http://www.w3.org/2000/svg" viewBox="0 0 951.9 931.9" enable-background="new 0 0 951.9 931.9"><style type="text/css">.st0{fill:#DF7626;} .st1{fill:#6FBE44;} .st2{fill:#88C546;} .st3{fill:#FFFFFF;}</style><circle cx="516.2" cy="496.5" r="430.7" class="st0"/><path d="M5 298.9c181.1-365 487-164 487-164S370 480 5 298.9z" class="st1"/><path d="M205.6 34.8C421.6-70.4 492 133.6 492 133.6S310.8 250.7 205.6 34.8z" class="st2"/><path d="M784 342.8c-24.9 11.7-48.1-.9-61.5-22.2 6.9 11-1.4-1.3-3.1-3.3-2.1-2.6-4.3-5.1-6.6-7.5-.8-.8-1.5-1.5-2.3-2.3-.4-.4-.8-.7-1.5-1.3-2.8-2.3-5.7-4.5-8.6-6.6-20.3-15-25.8-43.6-11.1-64.5 14.3-20.3 44.2-26 64.5-11.1 21.8 16.1 38.1 34.6 52.4 57.3 13.6 21.4-1.5 51.8-22.2 61.5z" class="st3"/></svg>