<svg xmlns="http://www.w3.org/2000/svg" viewBox="0 0 467.1 1000" enable-background="new 0 0 467.1 1000"><style type="text/css">.st0{fill:#6EA241;} .st1{fill:#C2DD94;}</style><path d="M225.4 815.2c10.9-.7 20.6-7.2 25.4-17.1 18.8-38.9 70.6-140.2 128.4-204.8C452 512.1 482.5 364.4 429.3 228 401.6 157.4 259.6-1.7 41.1 0 18.4.2 4 24.3 14.5 44.5 50.1 113 110.9 257 83.1 402 57 538.3 163.7 741 197 799.8c5.7 10.2 16.7 16.2 28.4 15.4z" class="st0"/><path d="M197.9 1000l71-352.9c18.3-91.1 18.5-185.1-1.4-275.8-18.5-84.6-56.6-179.4-132.8-254.4 0 0 163 210 114.6 500.8L174.4 1000h23.5z" class="st1"/></svg>