<svg xmlns="http://www.w3.org/2000/svg" viewBox="0 0 470.8 1025.8" enable-background="new 0 0 470.8 1025.8"><style type="text/css">.st0{fill:#29441E;} .st1{fill:#91CA6A;} .st2{fill:#7DBC5C;} .st3{fill:#456E34;} .st4{fill:#659B4B;} .st5{fill:#682E28;}</style><path d="M446.9 99.7c-170.9 466.8-3.6 779.6-3.6 779.6-8.5 48.9 14.5 86.4 14.5 86.4-22.3-48.9-66.4-50.1-66.4-50.1-186.7-463.9 26.5-829.2 26.5-829.2s32.3-2.6 42.5-26.2l-13.5 39.5z" class="st0"/><path d="M23.9 99.7c170.9 466.8 3.6 779.6 3.6 779.6C36 928.2 13 965.7 13 965.7c22.3-48.9 66.4-50.1 66.4-50.1C266.1 451.7 52.9 86.4 52.9 86.4s-32.3-2.6-42.5-26.2l13.5 39.5z" class="st1"/><path d="M72.3 67c170.9 466.8 3.6 844.8 3.6 844.8 8.5 48.9 0 86.4 0 86.4 22.3-48.9 59.2-71.9 59.2-71.9 186.6-463.8-33.8-872.6-33.8-872.6s-17.8-2.6-28-26.2l-1 39.5z" class="st2"/><path d="M398.5 67c-170.9 466.8-3.6 844.8-3.6 844.8-8.5 48.9 0 86.4 0 86.4-22.3-48.9-59.2-71.9-59.2-71.9-186.6-463.7 33.8-872.5 33.8-872.5s17.8-2.6 28-26.2l1 39.4z" class="st3"/><path d="M235.4 12.9c0 44.7-19.6 56.8-19.6 56.8s-29 828.5-7.2 844.2 26.9 99 26.9 99 5.2-83.3 26.9-99S255 69.6 255 69.6s-19.6-12-19.6-56.7z" class="st4"/><path d="M235.5 561c80.2 0 135.7-31.2 135.7-31.2V466c-59.9 42.1-135.7 43.1-135.7 43.1s-75.8-.9-135.7-43.1v63.8S155.3 561 235.5 561z" class="st5"/></svg>