<svg xmlns="http://www.w3.org/2000/svg" viewBox="0 0 1000 1000" enable-background="new 0 0 1000 1000"><style type="text/css">.st0{fill:#E1C82D;} .st1{fill:#D6DF6A;} .st2{fill:#FEF8C5;} .st3{fill:#ECF0B9;} .st4{fill:#FBD54E;}</style><ellipse cx="499.8" cy="500.1" transform="matrix(.707 -.707 .707 .707 -207.234 499.859)" class="st0" rx="478.7" ry="478.7"/><ellipse cx="499.8" cy="500.1" transform="matrix(.707 -.707 .707 .707 -207.234 499.859)" class="st1" rx="455.1" ry="455.1"/><ellipse cx="499.8" cy="500.1" transform="matrix(.707 -.707 .707 .707 -207.234 499.859)" class="st2" rx="431.2" ry="431.2"/><path d="M514.7 524.6l147.1-147.1s59.8-54.7 91.1 10.6c0 0 84.4 144.6-37.3 295.9 0 0-102.6 125.5-264.5 94.1 0 0-112.2-20.3-96-83.4 2.6-9.9 8.3-18.8 15.6-26.1l144-144z" class="st3"/><ellipse cx="663.1" cy="497.4" transform="matrix(.707 -.707 .707 .707 -157.536 614.562)" class="st4" rx="24.6" ry="24.6"/><ellipse cx="630.7" cy="573.6" transform="matrix(.707 -.707 .707 .707 -220.834 613.966)" class="st4" rx="24.6" ry="24.6"/><ellipse cx="571.3" cy="633" transform="matrix(.707 -.707 .707 .707 -280.234 589.362)" class="st4" rx="24.6" ry="24.6"/><ellipse cx="495.1" cy="665.5" transform="matrix(.707 -.707 .707 .707 -325.554 544.966)" class="st4" rx="24.6" ry="24.6"/><ellipse cx="721.7" cy="433.8" transform="matrix(.707 -.707 .707 .707 -95.356 637.397)" class="st4" rx="24.6" ry="24.6"/><ellipse cx="732.8" cy="525.9" transform="matrix(.707 -.707 .707 .707 -157.246 672.185)" class="st4" rx="24.6" ry="24.6"/><ellipse cx="708.4" cy="599" transform="matrix(.707 -.707 .707 .707 -216.096 676.374)" class="st4" rx="24.6" ry="24.6"/><ellipse cx="661.9" cy="662.2" transform="matrix(.707 -.707 .707 .707 -274.393 661.996)" class="st4" rx="24.6" ry="24.6"/><ellipse cx="597.1" cy="710.3" transform="matrix(.707 -.707 .707 .707 -327.378 630.279)" class="st4" rx="24.6" ry="24.6"/><ellipse cx="522.6" cy="732.1" transform="matrix(.707 -.707 .707 .707 -364.6 583.918)" class="st4" rx="24.6" ry="24.6"/><ellipse cx="431.1" cy="724.4" transform="matrix(.707 -.707 .707 .707 -385.987 517.014)" class="st4" rx="24.6" ry="24.6"/><path d="M475.3 485.1L622.4 338s54.7-59.8-10.6-91.1c0 0-144.6-84.4-295.9 37.3 0 0-125.5 102.6-94.1 264.5 0 0 20.3 112.2 83.4 96 9.9-2.6 18.8-8.3 26.1-15.6l144-144z" class="st3"/><ellipse cx="502.4" cy="336.8" transform="matrix(.707 -.707 .707 .707 -90.985 453.894)" class="st4" rx="24.6" ry="24.6"/><ellipse cx="426.3" cy="369.1" transform="matrix(.707 -.707 .707 .707 -136.165 409.556)" class="st4" rx="24.6" ry="24.6"/><ellipse cx="366.9" cy="428.5" transform="matrix(.707 -.707 .707 .707 -195.564 384.952)" class="st4" rx="24.6" ry="24.6"/><ellipse cx="334.4" cy="504.8" transform="matrix(.707 -.707 .707 .707 -259.003 384.298)" class="st4" rx="24.6" ry="24.6"/><ellipse cx="566" cy="278.1" transform="matrix(.707 -.707 .707 .707 -30.87 481.714)" class="st4" rx="24.6" ry="24.6"/><ellipse cx="473.9" cy="267.1" transform="matrix(.707 -.707 .707 .707 -50.034 413.353)" class="st4" rx="24.6" ry="24.6"/><ellipse cx="400.8" cy="291.4" transform="matrix(.707 -.707 .707 .707 -88.685 368.777)" class="st4" rx="24.6" ry="24.6"/><ellipse cx="337.6" cy="337.9" transform="matrix(.707 -.707 .707 .707 -140.074 337.721)" class="st4" rx="24.6" ry="24.6"/><ellipse cx="289.5" cy="402.7" transform="matrix(.707 -.707 .707 .707 -199.968 322.683)" class="st4" rx="24.6" ry="24.6"/><ellipse cx="267.8" cy="477.3" transform="matrix(.707 -.707 .707 .707 -259.069 329.145)" class="st4" rx="24.6" ry="24.6"/><ellipse cx="275.4" cy="568.8" transform="matrix(.707 -.707 .707 .707 -321.501 361.331)" class="st4" rx="24.6" ry="24.6"/></svg>