<svg xmlns="http://www.w3.org/2000/svg" viewBox="0 0 1000 853.7" enable-background="new 0 0 1000 853.7"><style type="text/css">.st0{fill:#6A9940;} .st1{fill:#DAE581;}</style><path d="M368.4 760.6c61.8 43 158 76.3 264-11.5 0 0 91.9-84.5 183.3-102.3 72.1-14 123.6-71.5 142.1-95.2 4.3-7.6 8.5-14.9 12.8-22.5 15.4-39.2 56.3-169.1 2.2-335.2-23-70.7-71.6-131.2-138.1-164.5C768.5-3.8 677-14.9 576.3 73.5c0 0-54 51.6 76.7 93.9 130.7 42.4 41.7 198.9 41.7 198.9S617 492.9 278 657.5c-1 .5-1.4 1.8-.8 2.8l2.8 4.7c22.7 37.6 52.4 70.6 88.4 95.6z" class="st0"/><path d="M14.7 848.7L0 791s391.6-94.5 662.3-322.2c0 0 82.2-58.9 116-197 0 0 3.7-20.9 5.2 1.5 0 0 17.5 159.9-276.5 342.2S14.7 848.7 14.7 848.7z" class="st1"/></svg>