<svg xmlns="http://www.w3.org/2000/svg" viewBox="0 0 1000 1000" enable-background="new 0 0 1000 1000"><style type="text/css">.st0{fill:#946527;} .st1{fill:#AAC363;} .st2{fill:#F2F4DF;} .st3{fill:#010101;}</style><ellipse cx="499.7" cy="500.3" class="st0" rx="464" ry="500"/><ellipse cx="499.7" cy="500.3" class="st1" rx="396.1" ry="426.8"/><ellipse cx="499.7" cy="500.3" class="st2" rx="117.9" ry="161.9"/><path d="M316.1 501c-4.2 4.4-11.5 10.7-22.4 15.3-6 2.5-11 4.6-17.4 3.8-9-1-21.5-8.2-21.5-19.9 0-11.4 12.2-18.7 21.5-19.9 5.9-.7 10.5 1 15.7 3.1 5.4 2.2 15.1 6.9 24.1 17.6zM329.6 571.6c-2.3 5.4-6.8 13.7-15.4 21.4-4.7 4.3-8.7 7.8-14.9 9.1-8.8 1.9-23.3-.9-27.6-11.9-4.2-10.7 4.5-21.4 12.9-25.5 5.3-2.5 10.3-2.4 15.9-2.1 5.8.3 16.7 1.7 29.1 9zM355.3 633.2c-.2 5.9-1.3 15-6.5 25-2.9 5.5-5.3 10-10.7 13.2-7.6 4.5-22.2 6.5-30.4-2.4-7.9-8.7-3.7-21.6 2.7-28 4-4.1 8.8-5.5 14.2-7 5.6-1.6 16.3-3.7 30.7-.8zM401.5 678.4c2 5.6 4.3 14.6 3.2 25.5-.7 6.1-1.2 11.1-5.1 15.8-5.5 6.6-18.5 13.1-29.4 7.3-10.7-5.7-11.5-19.1-7.9-27.1 2.3-5.1 6.2-7.9 10.7-11 4.6-3.3 13.9-8.8 28.5-10.5zM461.7 702.2c3.9 4.6 9.5 12.3 12.4 23 1.6 5.9 2.9 10.8 1.1 16.5-2.7 8-12.5 18.1-25 16.1-12.2-2-17.9-14.3-17.5-23 .2-5.5 2.9-9.4 6-13.8 3.2-4.5 9.9-12.6 23-18.8zM539.4 701.9c5.4 3.1 13.5 8.6 20.2 17.7 3.7 5 6.8 9.2 7.1 15.1.4 8.3-5 21-17.5 23-12.1 2-22.1-7.8-25-16.1-1.8-5.2-.7-9.8.5-14.8 1.4-5.3 4.7-14.9 14.7-24.9zM599.3 677.5c6.2 1.2 15.8 3.8 25.5 10.2 5.4 3.6 9.8 6.5 12.3 12 3.5 7.7 3 21.3-7.9 27.1-10.7 5.7-23.7-.4-29.4-7.3-3.6-4.3-4.3-8.9-5-14.1-.7-5.2-1.1-15.4 4.5-27.9zM645.3 632c6.3-.8 16.3-1.4 27.8 1.6 6.4 1.7 11.6 3.1 16 7.4 6.1 6.1 10.8 19.1 2.7 28-7.9 8.7-22.4 7.1-30.4 2.4-5-2.9-7.4-7-9.9-11.7-2.7-4.8-6.8-14.2-6.2-27.7zM670.4 570.1c5.6-2.8 14.8-6.5 26.7-7.3 6.6-.5 12.1-.8 17.8 1.9 8 3.8 17.2 14.5 12.9 25.5-4.2 10.7-18.4 13.7-27.6 11.9-5.8-1.2-9.5-4.3-13.7-7.8-4.3-3.7-11.7-11.3-16.1-24.2zM683.3 499.5c4.2-4.4 11.5-10.7 22.4-15.3 6-2.5 11-4.6 17.4-3.8 9 1 21.5 8.2 21.5 19.9 0 11.4-12.2 18.7-21.5 19.9-5.9.7-10.5-1-15.7-3.1-5.4-2.1-15.1-6.8-24.1-17.6zM669.8 429c2.3-5.4 6.8-13.7 15.4-21.4 4.7-4.3 8.7-7.8 14.9-9.1 8.8-1.9 23.3.9 27.6 11.9 4.2 10.7-4.5 21.4-12.9 25.5-5.3 2.5-10.3 2.4-15.9 2.1-5.8-.3-16.8-1.7-29.1-9zM644.1 367.4c.2-5.9 1.3-15 6.5-25 2.9-5.5 5.3-10 10.7-13.2 7.6-4.5 22.2-6.5 30.4 2.4 7.9 8.7 3.7 21.6-2.7 28-4 4.1-8.8 5.5-14.2 7-5.6 1.6-16.3 3.7-30.7.8zM597.9 322.2c-2-5.6-4.3-14.6-3.2-25.5.7-6.1 1.2-11.1 5.1-15.8 5.5-6.6 18.5-13.1 29.4-7.3 10.7 5.7 11.5 19.1 7.9 27.1-2.3 5.1-6.2 7.9-10.7 11-4.6 3.3-13.9 8.7-28.5 10.5zM537.7 298.4c-3.9-4.6-9.5-12.3-12.4-23-1.6-5.9-2.9-10.8-1.1-16.5 2.7-8 12.5-18.1 25-16.1 12.2 2 17.9 14.3 17.5 23-.2 5.5-2.9 9.4-6 13.8-3.2 4.5-9.9 12.5-23 18.8zM460 298.7c-5.4-3.1-13.5-8.6-20.2-17.7-3.7-5-6.8-9.2-7.1-15.1-.4-8.3 5-21 17.5-23 12.1-2 22.1 7.8 25 16.1 1.8 5.2.7 9.8-.5 14.8-1.4 5.2-4.7 14.9-14.7 24.9zM400 323.1c-6.2-1.2-15.8-3.8-25.5-10.2-5.4-3.6-9.8-6.5-12.3-12-3.5-7.7-3-21.3 7.9-27.1 10.7-5.7 23.7.4 29.4 7.3 3.6 4.3 4.3 8.9 5 14.1.7 5.2 1.2 15.3-4.5 27.9zM354.1 368.6c-6.3.8-16.3 1.4-27.8-1.6-6.4-1.7-11.6-3.1-16-7.4-6.1-6.1-10.8-19.1-2.7-28 7.9-8.7 22.4-7.1 30.4-2.4 5 2.9 7.4 7 9.9 11.7 2.7 4.8 6.8 14.2 6.2 27.7zM329 430.5c-5.6 2.8-14.8 6.5-26.7 7.3-6.6.5-12.1.8-17.8-1.9-8-3.8-17.2-14.5-12.9-25.5 4.2-10.7 18.4-13.7 27.6-11.9 5.8 1.2 9.5 4.3 13.7 7.8 4.3 3.7 11.7 11.2 16.1 24.2z" class="st3"/></svg>