<svg xmlns="http://www.w3.org/2000/svg" viewBox="0 0 1000 1000" enable-background="new 0 0 1000 1000"><style type="text/css">.st0{fill:#677D45;} .st1{fill:#B4BD84;}</style><path d="M5.7 980.2s42.1-254.7 360-430.5c0 0 220.7-108.3 412.7-431.6 0 0 122.5-202.3 177.8-41.7 3.8 11 7.8 22 11.9 33 21 56.6 74.1 245.6-77.7 405.6-180.9 190.6-494.9 373.6-494.9 373.6S144.2 1012.8 5.7 980.2z" class="st0"/><path d="M145.6 769c-18.5 11.9-25 36.1-16.6 56.4 15.4 37.3 54.4 111 160.8 62 103.5-47.8 86.3-127.1 65.3-162.6-12-20.3-36.4-30.8-58.9-23.8-12.8 4-24.8 13.3-29.2 33.1-11.2 50.4-73.7 31.8-73.7 31.8s-25-11.5-47.7 3.1zM366.2 644c-16.9 14-20.5 38.9-9.6 58 19.9 35.2 67.5 103.6 167.1 42 97-60 70.2-136.6 45.1-169.3-14.4-18.7-39.9-26.2-61.4-16.5-12.3 5.5-23 16.2-24.9 36.4-5 51.4-69.2 40.5-69.2 40.5s-26.4-8.3-47.1 8.9zM561.8 502.6c-11.2 18.9-6.2 43.5 10.4 57.9 30.5 26.5 98.4 74.9 171.5-16.6 71.2-89.1 20.3-152.3-14.4-174.6-19.8-12.8-46.3-11.2-63.3 5.1-9.7 9.3-16.2 23-11.2 42.7 12.6 50.1-51.6 61.4-51.6 61.4s-27.6 1-41.4 24.1zM724.8 305.8c-9.6 19.8-2.5 43.9 15.3 56.8 32.7 23.8 104.3 66.4 169.5-31 63.4-94.8 7.3-153.4-29.1-172.8-20.8-11.1-47.1-7.3-62.7 10.4-8.9 10.1-14.2 24.3-7.6 43.5 16.7 48.9-46.2 65.6-46.2 65.6s-27.5 3.3-39.2 27.5z" class="st1"/></svg>