<svg xmlns="http://www.w3.org/2000/svg" viewBox="0 0 1020.1 1010.1" enable-background="new 0 0 1020.1 1010.1"><style type="text/css">.st0{fill:#679E42;} .st1{fill:#FFFFFF;}</style><path d="M955.4 187.1l7.8-7.8c30.6-30.6 30.6-80.7 0-111.4-30.6-30.6-80.7-30.6-111.4 0l-4.7 4.7c-179-120.7-455-74.1-649.6 120.6S-43.8 663.8 76.9 842.8l-4.7 4.7c-30.6 30.6-30.6 80.7 0 111.4 30.6 30.6 80.7 30.6 111.4 0l7.8-7.8c109.2 65.2 250.4 71.8 386.7 24.5-178.9-45.5-311.4-207.2-311.4-400.3h712.8c47.8-136.7 41.3-278.5-24.1-388.2zm-297.3-44.5c-8.6 23.7-31.7 30.5-54.2 25.5 11.6 2.6-1.8.1-4.1-.1-3.1-.3-6.1-.5-9.2-.6-1 0-2 0-3 0-.5 0-1 .1-1.9.1-3.3.4-6.6.8-9.8 1.3-22.8 3.4-44.9-11.5-48.9-34.6-3.9-22.4 11.8-45.5 34.6-48.9 24.5-3.7 47.1-2.3 71.1 3.2 22.5 4.9 32.5 34.4 25.4 54.1zM173.1 939c179 120.7 455 74.1 649.6-120.6S1064 347.8 943.3 168.8l-694.8 138L173.1 939z" class="st0"/><path d="M664.4 143.6c-9.6 26.5-35.4 34.1-60.5 28.4 12.9 2.9-2 .1-4.6-.2-3.4-.3-6.8-.6-10.2-.6-1.1 0-2.2 0-3.3 0-.6 0-1.1.1-2.1.2-3.7.4-7.3.9-11 1.4-25.5 3.8-50.1-12.8-54.6-38.6-4.3-25 13.1-50.7 38.6-54.6 27.3-4.1 52.5-2.5 79.3 3.5 25.2 5.7 36.3 38.6 28.4 60.5z" class="st1"/></svg>