<svg xmlns="http://www.w3.org/2000/svg" viewBox="0 0 1000 771.9" enable-background="new 0 0 1000 771.9"><style type="text/css">.st0{fill:#E96E24;} .st1{fill:#F49367;} .st2{fill:#6EA241;}</style><path d="M175.3 125.1C243.3 55.9 334 12.7 430.7 5.9c105.9-7.4 236.6 26.5 326.2 197.6 174.4 332.9-276.2 528.6-276.2 528.6s-308 118.2-433.1-81c-60.3-96-54.1-198.3-31.5-278.4C36.2 301.3 73.4 236 123 180.9c15.2-17 33.5-36.8 52.3-55.8z" class="st0"/><path d="M590.1 91.6C504.2 33.7 430.4 44.4 376.4 72c-6.9 3.5-11.5 10.4-12.1 18.1-1.2 16.1 14.7 28 29.8 22.3 46.9-17.9 105.8-21 172.7 17 14.2 8.1 31.9-1.2 33.1-17.5v-.2c.6-8-3.2-15.6-9.8-20.1z" class="st1"/><path d="M655.6 151.4C774 430.4 1000 274.1 1000 274.1s-76.3-264-344.4-122.7z" class="st2"/></svg>