<svg xmlns="http://www.w3.org/2000/svg" viewBox="0 0 1000 1000" enable-background="new 0 0 1000 1000"><style type="text/css">.st0{fill:#9D1D20;} .st1{fill:#F7C350;} .st2{fill:#5B1A0E;}</style><path d="M588 963c67.9-.8 104-22.5 151.8-51C813 868.3 902 769 935.9 690.7c98.1-226.1 36.2-397.7-20.3-491.2C890.4 157.7 854.8 123 813 97.8c-234.7-141.6-291 8.3-291 8.3s-3.4 12.7-14.9 12.3h-6c-11.7.4-15.1-12.3-15.1-12.3S435.3-26.8 230 75.8c-60 30.1-110.2 67.9-145 124.7-56.3 92-117.2 258.5-25.5 477.6 37.4 89.3 99.2 167.4 181.8 219.8 53.9 34.2 94.9 62.6 171.6 65 16.9.5 33.8-1.8 50-6.7 24.3-7.3 50.1-7.8 74.6-1.3l10.8 2.9c12.9 3.4 26.3 5.3 39.7 5.2z" class="st0"/><path d="M621.2 897c33.8-6.9 57.3-21.9 86.9-40.2 64.6-39.8 143.2-129 172.5-199 80.1-191.3 28-336.8-20.2-416.9-29.5-49.1-72.2-89.4-123.2-115.4-174.9-89.1-218.1 94.8-218.1 94.8s-2.9 11-12.9 10.7H501c-10.1.4-13.1-10.7-13.1-10.7S444 36.6 266.3 125.4c-52 26-95.5 66.3-125.6 115.5-48.7 79.6-101.5 223.8-22 413.4 32.4 77.3 85.9 145 157.4 190.3C313 868 340.6 888.3 383 896.8c30.8 6.2 62.8 3.6 92.7-6l4.8-1.5c12.8-4.1 26.4-4.3 39.3-.7l14.9 4.2c28.1 8 57.8 10 86.5 4.2z" class="st1"/><path d="M482.4 703.5c13.2 5.4 28.1 5.4 41.3 0 150.9-61.4 154.2-192.2 154.2-192.2 21.3-199.8-142.5-257.5-142.5-257.5C523.2 227.7 503 227 503 227s-20.2.7-32.3 26.8c0 0-163.8 57.7-142.5 257.5 0 0 3.3 130.8 154.2 192.2z" class="st2"/></svg>