<svg xmlns="http://www.w3.org/2000/svg" viewBox="0 0 1000 771.9" enable-background="new 0 0 1000 771.9"><style type="text/css">.st0{fill:#4F7034;} .st1{fill:#5C883C;}</style><path d="M937.9 724.7s20 20.5 9.5 31.1c-10.5 10.6-22.4 3.6-22.4 3.6s-238.4-73.5-330.9-161.5c0 0-478.2-403.8-438.5-453.7 5.3-6.7 9.6-14 10.6-22.4 2.4-18.9 1.4-49-22.1-72.9 0 0 .2-21.4 37.3-37.8 4.4-1.9 9.5-.4 12.2 3.5 10.3 14.8 40.7 47.2 100 28.1 0 0 15.3-11.7 45.8 42.8 23.7 42.2 87.2 98.6 114.6 121.8 9.6 8.1 18.9 16.6 27.8 25.5 49.6 49.3 208.8 208.8 265.6 284.2 68 89.7 103.3 165 190.5 207.7z" class="st0"/><path d="M20.7 531.1S-5.2 543.4 1 557c6.2 13.6 19.7 11.1 19.7 11.1s249.2 13.6 366.3-37c0 0 588.4-213.3 568.5-273.9-2.7-8.1-4.1-16.4-2.2-24.7 4.3-18.6 15.6-46.5 46-60.7 0 0 7.2-20.2-21.9-48.4-3.4-3.3-8.8-3.6-12.7-.9-14.8 10.3-54.5 30.2-103.5-8.2 0 0-10.3-16.2-57.8 24.3-36.8 31.4-116 62.3-149.7 74.6-11.8 4.3-23.5 9.1-34.9 14.3C555 256.4 350.5 350.9 271.1 402c-94.6 60.9-153.8 119.3-250.4 129.1z" class="st1"/></svg>