<svg xmlns="http://www.w3.org/2000/svg" viewBox="0 0 1020.1 1010.1" enable-background="new 0 0 1020.1 1010.1"><style type="text/css">.st0{fill:#67A161;} .st1{fill:#FED077;} .st2{fill:#F89A57;} .st3{fill:#826146;}</style><path d="M110.3 904.9c10.6 10.6 149.7 68.3 149.7 68.3 237.2 103 405.3-73.3 433.4-105.6 3.4-3.9 6.9-7.7 10.5-11.4 134.8-141.6 183.7-413.6 183.7-413.6 8.6-62 92.2-166.3 92.2-166.3C1053 169.6 973.9 101 947 81.9c-5.4-3.8-10-8.4-13.8-13.8-19.1-27-87.7-106-194.3-32.8 0 0-104.3 83.6-166.3 92.2 0 0-272 48.9-413.6 183.7-3.8 3.6-7.5 7.1-11.4 10.5C115.3 349.9-61 517.9 42 755.1c0 0 57.7 139.2 68.3 149.8z" class="st0"/><path d="M144.4 870.8c9.4 9.4 134.1 59.5 134.1 59.5C491 1019.9 645.1 858.5 670.9 829c3.1-3.6 6.4-7 9.6-10.5C804.1 688.8 852 442.7 852 442.7c8.6-56.1 85.5-151.3 85.5-151.3 67.6-97.2-2.8-157.9-26.9-174.8-4.8-3.3-8.9-7.4-12.2-12.2-16.8-24-77.6-94.4-174.8-26.9 0 0-95.2 76.9-151.3 85.5 0 0-246 47.9-375.7 171.5-3.4 3.3-6.9 6.5-10.5 9.6-29.4 26-190.8 180.1-101.2 392.6 0 0 50.1 124.7 59.5 134.1z" class="st1"/><path d="M257.7 766.3c-3.8-2-6.9-5-8.9-8.9-10.2-20-40.3-90.8-10.2-185.7 35.7-112.8 153-178.7 153-178.7s159.7-91.6 218.3-78.7c58.6 12.8 95.5-32.9 95.5-32.9l135.4-128.7s-35.8-84-124.2-13.1-156.3 79.7-156.3 79.7-196.5 32-302.6 125.8c0 0-163 124-142.4 257.4 17.2 111.1 59 190.3 72.4 213.6 2.7 4.7 6.7 8.7 11.4 11.4 23.4 13.5 102.5 55.2 213.6 72.4 133.5 20.7 257.4-142.4 257.4-142.4C763.9 651.4 796 454.8 796 454.8s8.7-67.9 79.7-156.3-13.1-124.2-13.1-124.2L733.8 309.7s-45.8 36.9-32.9 95.5c12.8 58.6-78.7 218.3-78.7 218.3s-65.9 117.3-178.7 153c-95 30.1-165.8 0-185.8-10.2z" class="st2"/><ellipse cx="373.7" cy="723.1" transform="matrix(.707 -.707 .707 .707 -401.856 476.048)" class="st3" rx="33.2" ry="33.2"/><ellipse cx="292" cy="648.7" transform="matrix(.707 -.707 .707 .707 -373.191 396.502)" class="st3" rx="33.2" ry="33.2"/><ellipse cx="456.9" cy="652.7" transform="matrix(.707 -.707 .707 .707 -327.703 514.284)" class="st3" rx="33.2" ry="33.2"/><ellipse cx="362.4" cy="558.2" transform="matrix(.707 -.707 .707 .707 -288.548 419.757)" class="st3" rx="33.2" ry="33.2"/><ellipse cx="536.1" cy="580.8" transform="matrix(.707 -.707 .707 .707 -253.673 549.232)" class="st3" rx="33.2" ry="33.2"/><ellipse cx="434.3" cy="479" transform="matrix(.707 -.707 .707 .707 -211.489 447.393)" class="st3" rx="33.2" ry="33.2"/><ellipse cx="604.3" cy="502.6" transform="matrix(.707 -.707 .707 .707 -178.429 574.497)" class="st3" rx="33.2" ry="33.2"/><ellipse cx="509.7" cy="410.9" transform="matrix(.707 -.707 .707 .707 -141.229 480.779)" class="st3" rx="33.2" ry="33.2"/><ellipse cx="277.4" cy="737.7" transform="matrix(.707 -.707 .707 .707 -440.386 412.237)" class="st3" rx="33.2" ry="33.2"/><ellipse cx="678.7" cy="336.4" transform="matrix(.707 -.707 .707 .707 -39.071 578.467)" class="st3" rx="33.2" ry="33.2"/><ellipse cx="649.3" cy="424.2" transform="matrix(.707 -.707 .707 .707 -109.808 583.398)" class="st3" rx="33.2" ry="33.2"/><ellipse cx="590.9" cy="365.8" transform="matrix(.707 -.707 .707 .707 -85.603 524.962)" class="st3" rx="33.2" ry="33.2"/></svg>