<svg xmlns="http://www.w3.org/2000/svg" viewBox="0 0 1000 931.9" enable-background="new 0 0 1000 931.9"><style type="text/css">.st0{fill:#D9B77A;} .st1{fill:#1F1209;} .st2{fill:#998565;}</style><path d="M260.5 459.4S-68.4 501.7 27.3 784c0 0 50.2 130.1 219.5 141.1S486.7 668 486.7 668s11-37.6 83.1-98.8 396.6-470 396.6-470 50.6-75.3 4.1-92.4c0 0-14.7-6.3-29.4 32.3C926.5 78 607.4 310.8 500 363.8s-239.5 95.6-239.5 95.6z" class="st0"/><ellipse cx="131" cy="774" transform="matrix(.816 -.578 .578 .816 -423.183 217.961)" class="st1" rx="44.7" ry="83.3"/><path d="M475.1 698.9c-3.7-65.7-56.9-104.6-56.9-104.6s-23.1-27.4-41.8-1.7c-18.7 25.6-1.4 37-1.4 37 70.7 14.8 74.9 136.1 74.9 136.1M408.6 405.4c41.2 17.8 53.5 61.1 53.5 61.1s12.1 21.2-8.7 27.2c-.2.1-.4.1-.6.2-11.2 3-22.6-5.4-22.8-17-.4-42.4-49.9-60.8-49.9-60.8M567.3 325.2c34.3 7.6 50.4 39 50.4 39s12.5 14.5-2.6 22.2c-.2.1-.3.2-.5.2-8.2 4-18.2-.7-20.1-9.6-6.7-32.5-47.5-39.3-47.5-39.3M602 537.1c-3.1-54.5-47.2-86.8-47.2-86.8s-19.2-22.7-34.7-1.5c-.2.2-.3.4-.5.6-8.3 11.6-3.3 27.9 9.8 33.5 42.4 18.2 47.7 78.2 47.7 78.2M753.7 197.4c20.2 4.4 30.7 23.2 30.7 23.2s7.3 8.5-1.6 13c-.1 0-.2.1-.3.1-4.8 2.4-10.7-.4-11.8-5.7-3.9-19.1-27.5-23-27.5-23M764.2 349.1c-6.1-42.7-43-65.2-43-65.2s-16.6-16.6-27.4 1.2c-.1.2-.2.4-.3.5-5.7 9.7-.7 22.1 10 25.7 34.6 11.5 42.8 58.4 42.8 58.4" class="st2"/></svg>