<svg xmlns="http://www.w3.org/2000/svg" viewBox="0 0 1000 1000" enable-background="new 0 0 1000 1000"><style type="text/css">.st0{fill:#4F1817;} .st1{fill:#EDCCB5;} .st2{fill:#B59F31;} .st3{fill:#564E20;}</style><circle cx="500" cy="500" r="480.8" class="st0"/><circle cx="500" cy="500" r="400.6" class="st1"/><circle cx="504.5" cy="500" r="317.2" class="st2"/><circle cx="500" cy="500" r="59" class="st3"/><circle cx="660.3" cy="660.3" r="59" class="st3"/><circle cx="339.7" cy="660.3" r="59" class="st3"/><circle cx="339.7" cy="339.7" r="59" class="st3"/><ellipse cx="660.3" cy="339.7" transform="matrix(.707 -.707 .707 .707 -46.85 566.38)" class="st3" rx="59" ry="59"/><ellipse cx="286.3" cy="500" transform="matrix(.707 -.707 .707 .707 -269.691 348.909)" class="st3" rx="59" ry="59"/><ellipse cx="713.7" cy="500" transform="matrix(.707 -.707 .707 .707 -144.523 651.091)" class="st3" rx="59" ry="59"/><ellipse cx="500" cy="713.7" transform="matrix(.707 -.707 .707 .707 -358.198 562.584)" class="st3" rx="59" ry="59"/><circle cx="500" cy="286.3" r="59" class="st3"/></svg>