<svg xmlns="http://www.w3.org/2000/svg" viewBox="0 0 900.2 1010.1" enable-background="new 0 0 900.2 1010.1"><style type="text/css">.st0{fill:#F79029;} .st1{fill:#85C441;} .st2{fill:#6FBE44;} .st3{fill:#88C546;} .st4{fill:#FFFFFF;}</style><path d="M578.9 977c4.5-2.4 9.6-3.7 14.4-5.3 40.7-14 285.1-113 296.6-466.1 0 0 13.8-287.3-282.3-281H292.5c-296.1-6.3-282.3 281-282.3 281 11.5 353 256 452 296.6 466.1 4.8 1.7 9.6 3.5 14.4 5.3.1 0 138.3 63.1 257.7 0z" class="st0"/><path d="M251.4 107.2S269 297.1 461.7 276.1C440.6 83.4 251.4 107.2 251.4 107.2z" class="st1"/><path d="M453.7 5.1s137.1 132.7 0 269.7c-137-137.1 0-269.7 0-269.7z" class="st2"/><path d="M657.4 107.2s-17.6 189.9-210.3 168.9c21-192.7 210.3-168.9 210.3-168.9z" class="st3"/><path d="M763.4 391.9c-18.1 8.5-35-.7-44.8-16.2 5 8-1-.9-2.2-2.4-1.6-1.9-3.1-3.7-4.8-5.5-.6-.6-1.1-1.1-1.7-1.7-.3-.3-.6-.5-1.1-1-2-1.6-4.1-3.3-6.2-4.8-14.8-10.9-18.8-31.7-8-46.9 10.4-14.7 32.2-18.9 46.9-8 15.8 11.7 27.7 25.2 38.1 41.7 9.8 15.6-1.1 37.7-16.2 44.8z" class="st4"/></svg>