<svg xmlns="http://www.w3.org/2000/svg" viewBox="0 0 726.1 1000" enable-background="new 0 0 726.1 1000"><style type="text/css">.st0{fill:#7A5649;} .st1{fill:#4C2E86;} .st2{fill:#6B8F3C;} .st3{fill:#A65EA5;}</style><path d="M442.2 59.2l35.7 31s-67.1 64-65.6 201l-52.2 27.9s.4-177 82.1-259.9z" class="st0"/><path d="M375.4 1001.5s169.4 37.1 303.9-212c0 0 111.5-233.6-29.8-442.5 0 0-80.9-137-261.5-59.3 0 0-240.5-112.5-344.7 108.4s36.5 450 36.5 450 95.4 155.4 295.6 155.4z" class="st1"/><path d="M61.3 23.1C153.1 303.2 392.7 191 392.7 191S341.3-68.6 61.3 23.1z" class="st2"/><path d="M430.7 342.2c98.7-38.2 152.8 16.6 169.1 37.5 3.4 4.4 4.6 10.1 3.2 15.5l-.1.2c-3.4 13.1-19.4 17.8-29.4 8.8-23.2-21-66.3-45.6-131.7-28-13.3 3.6-25.4-8.5-22-21.8 1.5-5.6 5.6-10.1 10.9-12.2z" class="st3"/></svg>