<svg xmlns="http://www.w3.org/2000/svg" viewBox="0 0 1000 1000" enable-background="new 0 0 1000 1000"><style type="text/css">.st0{fill:#D42027;} .st1{fill:#FFECB2;} .st2{fill:#E96380;}</style><path d="M354.2 63.9l23.4 133.6S-6 288.7 48.1 652.8c0 0 34 200.3 257.5 288.9 121.4 48.1 257.1 49.7 379.2 3.7 113.5-42.8 242.4-135.8 271.4-337.9 0 0 42.4-296.9-333.4-408L644.7 64s-93.6 47.8-96.5 71.2l-48-117-50 117c.1-.2 1.1-24.1-96-71.3z" class="st0"/><path d="M606.1 247.9c.9.1 1.7.3 2.5.6 327 97.4 290 356.1 290 356.1-25.3 176.6-138 257.8-237.1 295.2-106.7 40.2-225.3 38.9-331.3-3.2-195.3-77.4-224.9-252.4-224.9-252.4C58 326.1 393.1 246.4 393.1 246.4c70.6-11 142.5-10.5 213 1.5z" class="st1"/><path d="M574.4 764.4c0 52.2 52.9 88.2 101.2 68.6 98.3-40 167.7-136.5 167.7-249.2S774 374.6 675.6 334.6c-48.4-19.7-101.2 16.4-101.2 68.6v361.2zM428.4 405.3c0-52.2-52.9-88.2-101.2-68.6-98.3 40-167.7 136.5-167.7 249.2s69.3 209.2 167.7 249.2c48.4 19.7 101.2-16.4 101.2-68.6V405.3z" class="st2"/><circle cx="643.6" cy="435.3" r="37.6" class="st0"/><circle cx="740.4" cy="510.6" r="37.6" class="st0"/><circle cx="643.6" cy="585.9" r="37.6" class="st0"/><circle cx="740.4" cy="653.9" r="37.6" class="st0"/><circle cx="643.6" cy="729.2" r="37.6" class="st0"/><circle cx="353.5" cy="435.3" r="37.6" class="st0"/><circle cx="256.6" cy="510.6" r="37.6" class="st0"/><circle cx="353.5" cy="585.9" r="37.6" class="st0"/><circle cx="256.6" cy="653.9" r="37.6" class="st0"/><circle cx="353.5" cy="729.2" r="37.6" class="st0"/></svg>