<svg xmlns="http://www.w3.org/2000/svg" viewBox="0 0 1000 894.6" enable-background="new 0 0 1000 894.6"><style type="text/css">.st0{fill:#6A9940;} .st1{fill:#B42C2C;}</style><path d="M518.7 404.1c-19.3-20.5-34.5-44.7-43.4-71.4-15-44.6-17.8-107.5 52.6-156 0 0 66.7-41.1 93.1-93.3 20.8-41.1 64.2-62.4 81.8-69.6 5.4-1.3 10.6-2.6 16-3.9 26.5-2.6 112-5 203.1 56.1 38.7 26 66.8 65.6 75.5 111.3 8.7 45.7-.2 102.9-70.8 148.6 0 0-40.4 23.8-43.7-62.4-1.2-32.3-17.4-48.7-37.2-56.6-35.8-14.3-76.1 5.5-89.5 41.6-26.3 71.1-94.3 199.1-233.4 157.9" class="st0"/><path d="M85.1 883.8c10.1 4.2 21.7 2.2 29.9-5C218.5 788.2 432 497 556.8 369.4c60.7-62 93.2-95.2 110.6-112.9 11.1-11.3 11-29.4-.2-40.5-11.2-11.2-29.3-11.2-40.5 0-17.6 17.4-50.6 50-112.3 111C387.5 452.3 96.9 667.6 7.1 771.1-.1 779.3-2 790.9 2.2 801c6.5 15.8 17.7 39.3 30.7 52.3 13 12.9 36.4 24 52.2 30.5zM634.7 194.7c3.3-9.7 9.1-31.3 2.9-49.2l27.8 1.6s10.2 35.5-2 53.3c-6.9 10-3.4 9.7.9 7.6 3.6-1.8 7.5-2.8 11.5-2.9 5-.1 15.5-4 36.7-22.8L724 204s-22.9 22.6-50.8 27.1c0 0 50.4-22.3 64.5-1.5l-9.9 26.2s-16.1-19.4-44.1-5.3c-22.7 11.4-42-29-48.5-44.7-1.6-3.6-1.7-7.5-.5-11.1z" class="st1"/></svg>