<svg xmlns="http://www.w3.org/2000/svg" viewBox="0 0 1000 1000" enable-background="new 0 0 1000 1000"><style type="text/css">.st0{fill:#4F833C;} .st1{fill:#805660;} .st2{fill:#D3BCC2;}</style><path d="M518.7 455.2s12.2-151-53.8-117.8-73.2 14.3-73.2 14.3-8-6.3 12.6-16.8 17.7-26.1 17.7-26.1-29.9-34.1-53-9.3-45 29-45 29-24.4.8-26.9-10.9 10.9-19.4 10.9-19.4 7.2-16.4-20.6-2.9-40.9 20.7-40.9 20.7-28 15.4-12.3-8.7c10-15.3 24-22.8 32.9-26.2 8.8-3.3 16-10.4 18.1-19.5.9-3.8.9-7.9-.8-12-5.9-14.3 32 .8 32 .8l41.6 10.5s17.2.4 12.2-16.4 22.5-14.6 22.5-14.6 98.5 20.7 122.3 89.4c22.7 65.6 22.7 65.6 22.7 65.6s6.3 27.3 14.3-18.5 12.2-75.3 12.2-75.3 3.8-66.9-42.1-58.1c-45.9 8.8-58.5 16.4-81.2-4.6s-6.3-24.8-6.3-24.8 52.6.4 45.9-40.8c-6.7-41.2-45-34.9-45-34.9s-26.1 7.6-41.6 20.6c-15.6 13-40.8-2.9-40.8-2.9s-24-16.4-2.1-38.3-8.8-23.1-8.8-23.1l-63.1 9.3s-31.5 5.4-16.7-14.4c4.3-5.8 10.2-10 16.8-13 10.7-4.8 29.7-11.7 50.9-11.7 32.8 0 21.7-33.5 21.7-33.5s5.2-14.5 27.5 5.3 56.8 52.6 56.8 52.6S456 84.6 453.5 61s26.1-14.3 26.1-14.3 175 127.9 77.8 371.5c0 0 0 6.7 105.2-98.4 0 0-93.8-131.7 8-197.3 0 0 38.3-29 41.6 20.6 0 0 13.5 26 35.5-20 5.3-11.2 8.5-23.2 10-35.5 2.3-18.2 10.4-47.9 38.6-43.7 40.4 5.9 36.2 43.8 36.2 43.8s24-6.3 39.1-57.6 72.4-21 72.4-21l31.4 15.5L991 55.9s30.3 57.2-21 72.4-57.6 39.1-57.6 39.1 37.9-4.2 43.8 36.2c4.1 28.3-25.6 36.3-43.7 38.6-12.3 1.5-24.4 4.7-35.5 10-46 22-20 35.5-20 35.5 49.6 3.4 20.6 41.6 20.6 41.6-65.6 101.8-197.3 8-197.3 8-105.2 105.2-98.4 105.2-98.4 105.2 243.6-97.2 371.5 77.8 371.5 77.8s9.3 28.6-14.3 26.1-17.7 17.7-17.7 17.7 32.8 34.5 52.6 56.8c19.8 22.3 5.3 27.5 5.3 27.5s-33.5-11.1-33.5 21.7c0 21.2-6.9 40.1-11.7 50.9-3 6.5-7.2 12.5-13 16.8-19.8 14.8-14.4-16.7-14.4-16.7L916 658s-1.3-30.7-23.1-8.8-38.3-2.1-38.3-2.1-16-25.2-2.9-40.8 20.6-41.6 20.6-41.6 6.3-38.3-34.9-45c-41.2-6.7-40.8 45.9-40.8 45.9s-3.8 16.4-24.8-6.3-13.5-35.3-4.6-81.2-58.1-42.1-58.1-42.1-29.4 4.2-75.3 12.2-18.5 14.3-18.5 14.3 0 0 65.6 22.7c68.7 23.8 89.4 122.3 89.4 122.3s2.3 27.5-14.6 22.5-16.7 11.9-16.7 11.9l10.5 41.6s15.1 37.9.8 32c-4.1-1.7-8.2-1.7-12-.8-9.2 2.1-16.2 9.3-19.5 18.1-3.4 8.9-10.8 22.9-26.2 32.9-24.1 15.7-8.7-12.3-8.7-12.3s7.2-13 20.6-40.8c13.5-27.8-2.9-20.6-2.9-20.6s-7.6 13.5-19.4 10.9c-11.8-2.5-10.9-26.9-10.9-26.9s4.2-21.9 29-45-9.3-53-9.3-53-15.6-2.9-26.1 17.7c-10.5 20.6-16.8 12.6-16.8 12.6s-18.9-7.2 14.3-73.2-117.8-53.8-117.8-53.8L519.4 456l-.7-.8z" class="st0"/><path d="M.1 999.6s106.6-70.7 150.3-58.3c0 0 226.6 112.2 362.4-84.1 0 0 106-117.2 5-296.7l47-47.7s14.9-14.1-12.6-40.8c-27.6-26.7-32.8-32.8-32.8-32.8s-17-21.7-35.6-2.3-45.4 45.4-45.4 45.4-184.9-132-357.4 58.4c0 0-108.5 107.4-18.2 326.7.1-.1 12.5 7.7-62.7 132.2z" class="st1"/><path d="M512.8 857.5c-135.7 196.3-362.4 84.1-362.4 84.1C106.7 929.3.1 1000 .1 1000c75.2-124.5 62.8-132.4 62.8-132.4-90.3-219.3 18.2-326.7 18.2-326.7C170.9 698.6 322 812 498.5 854.1l14.3 3.4z" class="st2"/></svg>