<svg xmlns="http://www.w3.org/2000/svg" viewBox="0 0 1000 1000" enable-background="new 0 0 1000 1000"><style type="text/css">.st0{fill:#7A983D;} .st1{fill:#426932;} .st2{fill:#A4C53A;}</style><path d="M47.7 917.9c-23.3-11-54.8-37 16.1-83 0 0 387.5-293.7 446.3-362.3s340.5-322.8 340.5-322.8S941 54.4 940.1 36.7c0 0 9.5-20.1 35.6-4.5 0 0 12.5.8-5.7 45.1 0 0 0 1.1 0 3.2 1.3 122.6-32.6 243.2-98.2 346.9C817.1 513.9 738.1 623.2 644 708c-10.4 9.3-20.4 19.1-30.3 28.9-70.1 69.6-354.9 332.7-533.6 200.1-10.1-7.6-21.1-13.7-32.4-19.1z" class="st0"/><path d="M204.9 746.7S39.1 857 110 915.1c70.9 58.2 124.4 33.3 124.4 33.3s173.7-32.4 487.3-353c35-35.8 67.2-74.4 95.8-115.4 49.7-71.2 119.2-182.1 111.1-235.2-12.5-81.9-87.4-53.9-87.4-53.9s-12.3-8.3-262.5 235.9-373.8 319.9-373.8 319.9z" class="st1"/><ellipse cx="459.3" cy="712.3" transform="matrix(.784 -.621 .621 .784 -343.108 439.299)" class="st2" rx="51.1" ry="51.1"/><ellipse cx="230" cy="865.7" transform="matrix(.784 -.621 .621 .784 -487.953 330.057)" class="st2" rx="51.1" ry="51.1"/><ellipse cx="349.6" cy="795.5" transform="matrix(.784 -.621 .621 .784 -418.486 389.174)" class="st2" rx="51.1" ry="51.1"/><ellipse cx="845.4" cy="291" transform="matrix(.784 -.621 .621 .784 2.093 588.035)" class="st2" rx="51.1" ry="51.1"/><ellipse cx="761.4" cy="400.9" transform="matrix(.784 -.621 .621 .784 -84.337 559.619)" class="st2" rx="51.1" ry="51.1"/><ellipse cx="665.9" cy="509.3" transform="matrix(.784 -.621 .621 .784 -172.308 523.751)" class="st2" rx="51.1" ry="51.1"/><ellipse cx="570.4" cy="617.7" transform="matrix(.784 -.621 .621 .784 -260.278 487.884)" class="st2" rx="51.1" ry="51.1"/></svg>