<svg xmlns="http://www.w3.org/2000/svg" viewBox="0 0 935.2 1000" enable-background="new 0 0 935.2 1000"><style type="text/css">.st0{fill:#458A40;} .st1{fill:#C6DC6A;}</style><path d="M77.7 564.9c-13.3-5.4-28.2 4.9-26.8 19.2.6 6.3 4.4 11.9 14.5 14.5 29.3 7.5 224.2 75.7 241.3 90 17 14.3 36.8 36.8 21.1 89.3-15.7 52.5 190.8 174.5 190.8 174.5s288.3 149.3 388.5-77.7-275.3-350.4-275.3-350.4-216-66.1-248.1 34.1c0 0-10.9 106.3-62 96.1-42-8.5-192.2-68.6-244-89.6zM857.9 436c13.3 5.4 28.2-4.9 26.8-19.2-.6-6.3-4.4-11.9-14.5-14.5-29.3-7.5-224.2-75.7-241.3-90-17-14.3-36.8-36.8-21.1-89.3C623.5 170.6 417 48.6 417 48.6S128.7-100.6 28.5 126.3s275.3 350.3 275.3 350.3 216.1 66.1 248.1-34.1c0 0 10.9-106.3 62-96.1 42.1 8.5 192.3 68.6 244 89.6z" class="st0"/><path d="M332.5 679.7c18.2 6.7 58.4 19.4 117.7 26.2 0 0 38.2 5.5 91.7 159.1l-9.9 36.5 13.6-32.7s27.3 32 50.8 48L547 864.1S507.8 752.7 481.9 720c0 0 82.8 11.9 149.9 46.3 0 0 24.9 8.5 34.1 72.2 0 0 12.6 76.7 86.2 105.3 0 0-63-35.1-81.8-102.9s-19.1-64.1-19.1-64.1l197 74.3-206.8-86.9s22.8-9.9 44-29.6 53.2-33.4 65.4-32.7c0 0-20.8-9.9-65.1 26.2s-61 26.9-61 26.9-140.4-55.9-162.2-56.6c0 0 40.9-11.6 52.5-23.2 11.6-11.6 45.8-19.8 45.8-19.8s27.1-10.9 34.9-18.7 67.5-7.5 67.5-7.5-60.4-16.5-125.4 27.3c-52.2 35.2-95.1 32.1-109.9 29.5-6-1-12-2.1-18.1-3-22.8-3.4-83.7-26.5-103-32.4-13.3-4-8 1.3-5.2 6.5 4.3 7.9 22.6 19.6 30.9 22.6zM590.5 318.6c-18.2-6.7-58.4-19.4-117.7-26.2 0 0-38.2-5.5-91.7-159.1l9.9-36.5-13.6 32.7s-27.3-32-50.8-48l49.4 52.8s39.2 111.4 65.1 144.1c0 0-82.8-11.9-149.9-46.3 0 0-24.9-8.5-34.1-72.2 0 0-12.6-76.7-86.2-105.3 0 0 63 35.1 81.8 102.9s19.1 64.1 19.1 64.1l-197-74.3 206.8 86.9s-22.8 9.9-44 29.6-53.2 33.4-65.4 32.7c0 0 20.8 9.9 65.1-26.2s61-26.9 61-26.9 140.4 55.9 162.2 56.6c0 0-40.9 11.6-52.5 23.2S362.2 343 362.2 343s-27.1 10.9-34.9 18.7c-7.8 7.8-67.5 7.5-67.5 7.5s60.4 16.5 125.4-27.3c52.2-35.2 95.1-32.1 109.9-29.5 6 1 12 2.1 18.1 3 22.8 3.4 87.6 25.4 106.5 32.6 13.9 5.3 13.2-3.7 10.4-8.9-4.2-8-31.3-17.5-39.6-20.5z" class="st1"/></svg>