<svg xmlns="http://www.w3.org/2000/svg" viewBox="0 0 1000 1000" enable-background="new 0 0 1000 1000"><style type="text/css">.st0{fill:#EB7A24;} .st1{fill:#F9C015;} .st2{fill:#EEEBCD;} .st3{fill:#CD7D29;}</style><path d="M498.6 826.3c-89.2 101.9-284.7 145.2-284.7 145.2s-17-219.5 47.4-338.7C135.8 581.6 10 401.2 10 401.2s202.1-87.4 335.7-65.2v-2.4C360.8 199.1 500 28.5 500 28.5s139.2 170.6 154.3 305.1v2.4C787.9 313.8 990 401.2 990 401.2S863.9 581.7 738.6 633h-.1c70.9 115.4 66.1 335.5 66.1 335.5s-210.9-45-305.6-141.8l-.4-.4z" class="st0"/><path d="M498.9 756.6C428.8 836.7 275 870.7 275 870.7s-13.4-172.6 37.2-266.3c-98.6-40.3-197.5-182.1-197.5-182.1s158.9-68.7 263.9-51.2v-1.9C390.5 263.4 500 129.3 500 129.3s109.5 134.1 121.3 239.9v1.9c105-17.5 263.9 51.2 263.9 51.2s-99.1 141.9-197.7 182.2h-.1c55.8 90.7 52 263.8 52 263.8S573.7 833 499.2 756.9l-.3-.3z" class="st1"/><path d="M498.3 277.2l-39.2 189.7L265 446.1l168.9 98.3-82.7 178.4L498.3 594l145.3 128.8-80.9-180.2L735 446.1l-196.7 22.6z" class="st2"/><ellipse cx="500.2" cy="420.3" class="st3" rx="9.4" ry="28.1"/><ellipse cx="584.2" cy="493.4" transform="matrix(.921 -.39 .39 .921 -146.157 266.904)" class="st3" rx="28.1" ry="9.4"/><ellipse cx="415.8" cy="493.4" transform="matrix(.39 -.921 .921 .39 -200.676 683.835)" class="st3" rx="9.4" ry="28.1"/><ellipse cx="541.5" cy="586.2" transform="matrix(.735 -.678 .678 .735 -253.966 522.266)" class="st3" rx="9.4" ry="28.1"/><ellipse cx="453.9" cy="586.2" transform="matrix(.678 -.735 .735 .678 -284.74 522.61)" class="st3" rx="28.1" ry="9.4"/></svg>