<svg xmlns="http://www.w3.org/2000/svg" viewBox="0 0 851.9 1000" enable-background="new 0 0 851.9 1000"><style type="text/css">.st0{fill:#3A471E;} .st1{fill:#CDDC40;} .st2{fill:#AFD35B;}</style><path d="M824.2 32.4c-22.8-22.8-60-22.2-82 1.4l-96.9 103.5s-35.7-11.3-90.2 48.9c-30.1 33.2-87.7 101.3-133.2 155.7-66.5 79.4-139.9 153-220.3 218.4-32.5 26.5-66.5 52-97.6 71.3-1.1.7-2.2 1.4-3.2 2-150.1 96-99.7 329.9 77 352.9 17.1 2.2 35.7 3 55.9 2.2 223.7-9.4 428.5-340.2 428.5-340.2s191.7-276.3 131.6-415.4l45.7-135.6c7.6-22.8 1.7-48-15.3-65.1z" class="st0"/><path d="M812.7 176.9l-10.4-.6c-9.7-.4-16.8-9.5-14.7-19l.8-3.5c2.4-10.7-6.8-20.5-17.7-18.8l-2 .3c-10.7 1.7-19.8-7.8-17.7-18.4 2.2-11-7.6-20.6-18.6-18.3l-4.7 1c-8.9 1.9-17.6-4.2-18.8-13.3l-2.8-14.1s50.6-88.4 111.4-45.4-4.8 150.1-4.8 150.1z" class="st1"/><path d="M700.2 414.4s17.4-27.7 0-35.5c-17.4-7.8-28.4 24.9-28.4 24.9S600.1 547.9 483 679.5c0 0-106.5 112.8-152.9 147.9 0 0-32.3 19.6-16.1 37.2 16.2 17.6 48.9-16.2 48.9-16.2s255-231.7 337.3-434z" class="st2"/></svg>