<svg xmlns="http://www.w3.org/2000/svg" viewBox="0 0 1000 1000" enable-background="new 0 0 1000 1000"><style type="text/css">.st0{fill:#ED6D23;} .st1{fill:#BE3A26;}</style><path d="M55.3 893.6s-86.7-64.7-10.8-95.7c6.1-2.5 12.5-3.9 19-4.7 22.6-2.9 85.8-14.3 111.4-53.5 0 0 100.2-132.2 160.8-339.4 0 0 76.7-297.6 375.4-359.4 0 0 258.7-58.4 274.4-14.6 0 0 8.9 21.7-25 43.6-33.9 21.9-47.2 52.8-47.2 52.8s-9.5 18.4 2.5 61c6.4 22.6 11.4 45.6 13.9 69 7.7 72.5 12.1 218.4-41.6 393.7C810.8 898.2 515.5 976 515.5 976s-259.9 64.1-460.2-82.4z" class="st0"/><path d="M778.1 303c17.4 27.9-7.4 42.4-7.4 42.4-24.6 10.6-37.2-13.2-37.2-13.2-15.5-30-47.8-46.1-47.8-46.1-21.2-12.9-60.4-15.5-60.4-15.5s-26-5.2-20.3-30.3 32.3-19.7 32.3-19.7 87-3.7 140.8 82.4zM552.8 549.2c14.1 22.6-6 34.2-6 34.2-19.9 8.6-30.1-10.6-30.1-10.6-12.5-24.3-38.6-37.2-38.6-37.2-17.1-10.5-48.8-12.6-48.8-12.6s-21.1-4.2-16.4-24.5c4.6-20.4 26.1-16 26.1-16s70.3-3 113.8 66.7zM809.2 512.7c15.8 25.3-6.7 38.4-6.7 38.4-22.3 9.6-33.7-11.9-33.7-11.9-14-27.2-43.3-41.8-43.3-41.8-19.2-11.7-54.8-14-54.8-14s-23.6-4.7-18.4-27.5c5.2-22.8 29.3-17.9 29.3-17.9s78.8-3.4 127.6 74.7zM400.6 773.2c10.9 17.4-4.6 26.4-4.6 26.4-15.4 6.6-23.2-8.2-23.2-8.2-9.6-18.7-29.8-28.7-29.8-28.7-13.2-8-37.7-9.6-37.7-9.6s-16.2-3.2-12.7-18.9c3.6-15.7 20.2-12.3 20.2-12.3s54.2-2.4 87.8 51.3zM635.2 768.7c10.9 17.4-4.6 26.4-4.6 26.4-15.4 6.6-23.2-8.2-23.2-8.2-9.6-18.7-29.8-28.7-29.8-28.7-13.2-8-37.7-9.6-37.7-9.6s-16.2-3.2-12.7-18.9 20.2-12.3 20.2-12.3 54.2-2.5 87.8 51.3z" class="st1"/></svg>