<svg xmlns="http://www.w3.org/2000/svg" viewBox="0 0 1000 908.3" enable-background="new 0 0 1000 908.3"><style type="text/css">.st0{fill:#5B2A36;} .st1{fill:#B62E25;}</style><path d="M134.7 705.5c-8.7-9.9-11.5-23.8-7.1-36.3 17.2-49.3 59.6-180.3 65.3-285C200.1 252.5 300.3 100 462.5 28.9c84.1-36.9 341.6-51.4 527 136.9 19.3 19.6 11 52.6-15.2 60.8-89.1 28.1-264.2 99.3-364.5 247.1-94.2 138.9-358.9 221-437.7 242.9-13.6 3.8-28.1-.5-37.4-11.1z" class="st0"/><path d="M.1 887l241.1-362.6c62.2-93.6 142.5-174.1 237.1-234.8 88.2-56.5 201.9-105.1 331.2-104 0 0-319 40.2-526.3 330.4l-263 391.1L.1 887z" class="st1"/></svg>