<svg xmlns="http://www.w3.org/2000/svg" viewBox="0 0 1020.1 1059.1" enable-background="new 0 0 1020.1 1059.1"><style type="text/css">.st0{fill:#F6861F;} .st1{fill:#6FBE44;} .st2{fill:#FFFFFF;}</style><path d="M238 284.4C142.3 348 33.4 452 13.2 603.2-4 731.5 51.4 858.1 151.8 939.9c87.1 70.9 228.1 136.6 438.5 104.6 406.5-61.8 418.5-415.3 418.5-415.3s35.9-220.4-285-399.7c0 0-38.7-20.3-108.7-31.2-131.8-20.5-266 12.3-377.1 86.1z" class="st0"/><path d="M611.1 226.5C940.6 225.3 906 519.3 906 519.3S612.3 556 611.1 226.5zM483.5 175.8C482.8-12.9 651.1 6.9 651.1 6.9s21 168.2-167.6 168.9zM425.1 264.4s1.5 17.8 16.2 17.8c4.4 0 7.6-2.7 10-6.5 12-19.3 29.9-34.2 52.1-39.2 34.8-7.9 81.4-9 109.2 28 48.8 64.9 26.8-36.5 26.8-36.5s-120.9-63.9-185.7 7.1c0 0 16.6-48.2 66.1-61.7l-32.6-20.6c0-.1-55.1 29.8-62.1 111.6z" class="st1"/><path d="M259.3 395.6c9.5 20.2-.8 38.9-18 49.8 8.9-5.6-1 1.1-2.7 2.5-2.1 1.7-4.1 3.5-6.1 5.4-.6.6-1.2 1.2-1.9 1.9-.3.3-.6.7-1.1 1.2-1.8 2.3-3.6 4.6-5.3 6.9-12.1 16.4-35.3 20.9-52.2 8.9-16.4-11.6-21.1-35.8-8.9-52.2 13-17.6 28-30.8 46.3-42.4 17.4-10.9 42 1.3 49.9 18z" class="st2"/></svg>