<svg xmlns="http://www.w3.org/2000/svg" viewBox="0 0 1000 1000" enable-background="new 0 0 1000 1000"><style type="text/css">.st0{fill:#CDCA68;} .st1{fill:#87A23D;} .st2{fill:#C8DD77;}</style><path d="M542.3 102.9s-16.5-28-14 11.5 30.5 207.5 30.5 207.5L396.5 112.8s-18.1-16.5-51.9 9.9-74.9 61.8-74.9 61.8-91.4-18.9-68.3 81.5c0 0 10.4 18.1-26.3 19.2-36.8 1.1-87.8 103.2-87.8 103.2S-3.4 513.5 69.6 633.2c0 0 18.9 31.3 42 49.4 0 0 11.5 113.6 162.2 135 0 0-19.8 43.6 32.9 53.5s67.5 14 67.5 14 51.9 40.3 115.3 10.7c0 0 285.7-16.5 289.8-87.3 0 0 19.8-30.5 88.1-44.5s66.7-42 66.7-42 58.5-162.2-4.9-179.5c0 0-39.9-7.4-59.3-5.4 0 0 125.7-184.6-100.5-326.2.1.1-56.9-4.2-227.1-108z" class="st0"/><path d="M639.8 299c-7.2-2.8-14.2-6.1-21.1-9.4-46.1-21.9-200.7-77.9-339.8 74.1-44.5 48.6-69.3 98.8-81.9 146.2-55.3 208 148.3 393 351.4 321.8 4.2-1.5 8.5-3 12.7-4.7C761.7 750 791 682.9 795.3 666.3c1.1-4.2 2.3-8.2 3.6-12.3 10.6-33.5 43.6-159.9-33.5-238.8-14.4-14.7-27.9-30.2-41.6-45.6-23.5-26.3-57.4-60.3-84-70.6z" class="st1"/><path d="M556.7 357c-31.1-12.8-105.8-32.2-175.4 37.2-4.5 4.5-6 11.1-4.1 17.1l1.4 4.2c3.7 11.5 17.9 15.7 27.1 7.8 52.1-44.5 105.6-42.8 140.3-34.1 12.9 3.2 24.3-9.1 20.2-21.7-1.4-4.7-4.9-8.6-9.5-10.5z" class="st2"/></svg>