<svg xmlns="http://www.w3.org/2000/svg" viewBox="0 0 960.2 1000" enable-background="new 0 0 960.2 1000"><style type="text/css">.st0{fill:#DBCF59;} .st1{fill:#4E5336;} .st2{fill:#9A9D85;}</style><path d="M484.2 0l40.9 22.3s-51 75.8-20.5 207.3l-44.3 37.9c-.1-.1-37.2-170.5 23.9-267.5z" class="st0"/><ellipse cx="248" cy="596.2" class="st1" rx="236.7" ry="403.8"/><ellipse cx="712.2" cy="596.2" class="st1" rx="236.7" ry="403.8"/><path d="M572.9 192.4c-32.9 0-64.3 11.5-92.8 32.2-28.5-20.7-59.9-32.2-92.8-32.2-130.7 0-236.7 180.8-236.7 403.8s106 403.8 236.7 403.8c32.9 0 64.3-11.5 92.8-32.2 28.5 20.8 59.9 32.2 92.8 32.2 130.7 0 236.7-180.8 236.7-403.8s-106-403.8-236.7-403.8z" class="st1"/><path d="M227 402c8.7.3 16.6-7.8 20-20.3 10.4-37.8 4-43.1 24.1-88.8 14.9-33.9 77-88.6 44-88.6-12.5 0-22.8 7.6-32.5 17.3-34.5 34.2-54.2 74-64.9 131.7-4.3 22.7-6.4 48.2 9.3 48.7zM724.2 330.5c15.9 0 26.3-16.8 19.1-31-16.9-33.3-39.1-62-65.1-84.2-8.2-7-20-11-32.5-11-33 0 3.7 26.4 20.2 47.6 15.2 19.4 28.3 41.5 38.7 65.7 3.4 7.8 11.1 12.9 19.6 12.9zM251 335.1" class="st2"/><path d="M236.7 861.1c-15.9 0-26.3 16.8-19.1 31 16.9 33.3 39.1 62 65.1 84.2 8.2 7 20 11 32.5 11 33 0-3.7-26.4-20.2-47.6-15.2-19.4-28.3-41.5-38.7-65.7-3.4-7.8-11-12.9-19.6-12.9zM731.6 789.6c-8.7-.3-16.6 7.8-20 20.3-10.4 37.8-4 43.1-24.1 88.8-14.9 33.9-77 88.6-44 88.6 12.5 0 22.8-7.6 32.5-17.3 34.5-34.2 54.2-74 64.9-131.7 4.3-22.7 6.4-48.2-9.3-48.7z" class="st2"/></svg>